%TF.GenerationSoftware,KiCad,Pcbnew,8.0.6*%
%TF.CreationDate,2024-12-16T15:44:53-05:00*%
%TF.ProjectId,stm32,73746d33-322e-46b6-9963-61645f706362,rev?*%
%TF.SameCoordinates,Original*%
%TF.FileFunction,Soldermask,Top*%
%TF.FilePolarity,Negative*%
%FSLAX46Y46*%
G04 Gerber Fmt 4.6, Leading zero omitted, Abs format (unit mm)*
G04 Created by KiCad (PCBNEW 8.0.6) date 2024-12-16 15:44:53*
%MOMM*%
%LPD*%
G01*
G04 APERTURE LIST*
G04 Aperture macros list*
%AMRoundRect*
0 Rectangle with rounded corners*
0 $1 Rounding radius*
0 $2 $3 $4 $5 $6 $7 $8 $9 X,Y pos of 4 corners*
0 Add a 4 corners polygon primitive as box body*
4,1,4,$2,$3,$4,$5,$6,$7,$8,$9,$2,$3,0*
0 Add four circle primitives for the rounded corners*
1,1,$1+$1,$2,$3*
1,1,$1+$1,$4,$5*
1,1,$1+$1,$6,$7*
1,1,$1+$1,$8,$9*
0 Add four rect primitives between the rounded corners*
20,1,$1+$1,$2,$3,$4,$5,0*
20,1,$1+$1,$4,$5,$6,$7,0*
20,1,$1+$1,$6,$7,$8,$9,0*
20,1,$1+$1,$8,$9,$2,$3,0*%
G04 Aperture macros list end*
%ADD10C,2.200000*%
%ADD11RoundRect,0.100000X-0.130000X-0.100000X0.130000X-0.100000X0.130000X0.100000X-0.130000X0.100000X0*%
%ADD12RoundRect,0.140000X0.170000X-0.140000X0.170000X0.140000X-0.170000X0.140000X-0.170000X-0.140000X0*%
%ADD13RoundRect,0.135000X-0.135000X-0.185000X0.135000X-0.185000X0.135000X0.185000X-0.135000X0.185000X0*%
%ADD14R,1.200000X1.400000*%
%ADD15R,1.700000X1.700000*%
%ADD16O,1.700000X1.700000*%
%ADD17R,1.000000X0.800000*%
%ADD18C,0.900000*%
%ADD19R,0.700000X1.500000*%
%ADD20RoundRect,0.075000X-0.662500X-0.075000X0.662500X-0.075000X0.662500X0.075000X-0.662500X0.075000X0*%
%ADD21RoundRect,0.075000X-0.075000X-0.662500X0.075000X-0.662500X0.075000X0.662500X-0.075000X0.662500X0*%
%ADD22O,0.800000X0.800000*%
%ADD23R,1.300000X0.450000*%
%ADD24O,1.800000X1.150000*%
%ADD25O,2.000000X1.450000*%
%ADD26RoundRect,0.250000X-0.250000X-0.475000X0.250000X-0.475000X0.250000X0.475000X-0.250000X0.475000X0*%
%ADD27RoundRect,0.140000X0.140000X0.170000X-0.140000X0.170000X-0.140000X-0.170000X0.140000X-0.170000X0*%
%ADD28RoundRect,0.140000X-0.170000X0.140000X-0.170000X-0.140000X0.170000X-0.140000X0.170000X0.140000X0*%
%ADD29RoundRect,0.135000X0.135000X0.185000X-0.135000X0.185000X-0.135000X-0.185000X0.135000X-0.185000X0*%
%ADD30RoundRect,0.250000X0.475000X-0.250000X0.475000X0.250000X-0.475000X0.250000X-0.475000X-0.250000X0*%
%ADD31RoundRect,0.218750X0.256250X-0.218750X0.256250X0.218750X-0.256250X0.218750X-0.256250X-0.218750X0*%
%ADD32RoundRect,0.375000X-0.375000X0.625000X-0.375000X-0.625000X0.375000X-0.625000X0.375000X0.625000X0*%
%ADD33RoundRect,0.500000X-1.400000X0.500000X-1.400000X-0.500000X1.400000X-0.500000X1.400000X0.500000X0*%
%ADD34RoundRect,0.135000X-0.185000X0.135000X-0.185000X-0.135000X0.185000X-0.135000X0.185000X0.135000X0*%
%ADD35RoundRect,0.218750X-0.256250X0.218750X-0.256250X-0.218750X0.256250X-0.218750X0.256250X0.218750X0*%
%ADD36RoundRect,0.140000X-0.140000X-0.170000X0.140000X-0.170000X0.140000X0.170000X-0.140000X0.170000X0*%
G04 APERTURE END LIST*
D10*
%TO.C,H3*%
X167500000Y-118400000D03*
%TD*%
D11*
%TO.C,C5*%
X143680000Y-99677482D03*
X144320000Y-99677482D03*
%TD*%
D12*
%TO.C,C11*%
X138000000Y-105980000D03*
X138000000Y-105020000D03*
%TD*%
D13*
%TO.C,R1*%
X135490000Y-98400000D03*
X136510000Y-98400000D03*
%TD*%
D14*
%TO.C,Y1*%
X134650000Y-103224104D03*
X134650000Y-105424104D03*
X136350000Y-105424104D03*
X136350000Y-103224104D03*
%TD*%
D15*
%TO.C,J3*%
X149500000Y-93900000D03*
D16*
X146960000Y-93900000D03*
X144420000Y-93900000D03*
X141880000Y-93900000D03*
%TD*%
D17*
%TO.C,SW1*%
X138179126Y-94856375D03*
X138179126Y-92646375D03*
D18*
X136029126Y-93746375D03*
X133029126Y-93746375D03*
D17*
X130879126Y-94856375D03*
X130879126Y-92646375D03*
D19*
X136779126Y-95506375D03*
X133779126Y-95506375D03*
X132279126Y-95506375D03*
%TD*%
D20*
%TO.C,U1*%
X142337500Y-102750000D03*
X142337500Y-103250000D03*
X142337500Y-103750000D03*
X142337500Y-104250000D03*
X142337500Y-104750000D03*
X142337500Y-105250000D03*
X142337500Y-105750000D03*
X142337500Y-106250000D03*
X142337500Y-106750000D03*
X142337500Y-107250000D03*
X142337500Y-107750000D03*
X142337500Y-108250000D03*
D21*
X143750000Y-109662500D03*
X144250000Y-109662500D03*
X144750000Y-109662500D03*
X145250000Y-109662500D03*
X145750000Y-109662500D03*
X146250000Y-109662500D03*
X146750000Y-109662500D03*
X147250000Y-109662500D03*
X147750000Y-109662500D03*
X148250000Y-109662500D03*
X148750000Y-109662500D03*
X149250000Y-109662500D03*
D20*
X150662500Y-108250000D03*
X150662500Y-107750000D03*
X150662500Y-107250000D03*
X150662500Y-106750000D03*
X150662500Y-106250000D03*
X150662500Y-105750000D03*
X150662500Y-105250000D03*
X150662500Y-104750000D03*
X150662500Y-104250000D03*
X150662500Y-103750000D03*
X150662500Y-103250000D03*
X150662500Y-102750000D03*
D21*
X149250000Y-101337500D03*
X148750000Y-101337500D03*
X148250000Y-101337500D03*
X147750000Y-101337500D03*
X147250000Y-101337500D03*
X146750000Y-101337500D03*
X146250000Y-101337500D03*
X145750000Y-101337500D03*
X145250000Y-101337500D03*
X144750000Y-101337500D03*
X144250000Y-101337500D03*
X143750000Y-101337500D03*
%TD*%
D12*
%TO.C,C4*%
X140457034Y-102738562D03*
X140457034Y-101778562D03*
%TD*%
%TO.C,C6*%
X140500000Y-106980000D03*
X140500000Y-106020000D03*
%TD*%
D22*
%TO.C,J1*%
X165200000Y-106658629D03*
X165200000Y-101658629D03*
D23*
X164100000Y-105458629D03*
X164100000Y-104808629D03*
X164100000Y-104158629D03*
X164100000Y-103508629D03*
X164100000Y-102858629D03*
D24*
X167950000Y-108033629D03*
D25*
X164150000Y-107883629D03*
X164150000Y-100433629D03*
D24*
X167950000Y-100283629D03*
%TD*%
D26*
%TO.C,C13*%
X158835910Y-108749348D03*
X160735910Y-108749348D03*
%TD*%
D27*
%TO.C,C1*%
X149837734Y-111505022D03*
X148877734Y-111505022D03*
%TD*%
D10*
%TO.C,H1*%
X127000000Y-94400000D03*
%TD*%
D28*
%TO.C,C3*%
X152522960Y-102520000D03*
X152522960Y-103480000D03*
%TD*%
D29*
%TO.C,R4*%
X146617044Y-114500000D03*
X145597044Y-114500000D03*
%TD*%
D28*
%TO.C,C9*%
X140500000Y-108980000D03*
X140500000Y-108020000D03*
%TD*%
D30*
%TO.C,C12*%
X164500000Y-114850000D03*
X164500000Y-112950000D03*
%TD*%
D29*
%TO.C,R3*%
X168099356Y-110207051D03*
X167079356Y-110207051D03*
%TD*%
D31*
%TO.C,FB1*%
X142000000Y-112787500D03*
X142000000Y-111212500D03*
%TD*%
D32*
%TO.C,U2*%
X162085910Y-111099348D03*
X159785910Y-111099348D03*
D33*
X159785910Y-117399348D03*
D32*
X157485910Y-111099348D03*
%TD*%
D34*
%TO.C,R2*%
X158507519Y-103099117D03*
X158507519Y-104119117D03*
%TD*%
D13*
%TO.C,R5*%
X147810000Y-114500000D03*
X148830000Y-114500000D03*
%TD*%
D35*
%TO.C,D1*%
X167310923Y-111712500D03*
X167310923Y-113287500D03*
%TD*%
D27*
%TO.C,C8*%
X140684344Y-112780833D03*
X139724344Y-112780833D03*
%TD*%
D15*
%TO.C,J4*%
X143700000Y-119000000D03*
D16*
X146240000Y-119000000D03*
X148780000Y-119000000D03*
X151320000Y-119000000D03*
%TD*%
D12*
%TO.C,C10*%
X138000000Y-103804104D03*
X138000000Y-102844104D03*
%TD*%
D10*
%TO.C,H2*%
X167500000Y-94400000D03*
%TD*%
D27*
%TO.C,C7*%
X140676039Y-111211575D03*
X139716039Y-111211575D03*
%TD*%
D15*
%TO.C,J2*%
X162000000Y-93900000D03*
D16*
X159460000Y-93900000D03*
X156920000Y-93900000D03*
X154380000Y-93900000D03*
%TD*%
D10*
%TO.C,H4*%
X127000000Y-118400000D03*
%TD*%
D36*
%TO.C,C2*%
X144480000Y-98500000D03*
X143520000Y-98500000D03*
%TD*%
M02*
