M48
; DRILL file {KiCad 8.0.6} date 2024-12-16T15:44:47-0500
; FORMAT={-:-/ absolute / metric / decimal}
; #@! TF.CreationDate,2024-12-16T15:44:47-05:00
; #@! TF.GenerationSoftware,Kicad,Pcbnew,8.0.6
; #@! TF.FileFunction,MixedPlating,1,2
FMAT,2
METRIC
; #@! TA.AperFunction,Plated,PTH,ViaDrill
T1C0.300
; #@! TA.AperFunction,Plated,PTH,ViaDrill
T2C0.400
; #@! TA.AperFunction,Plated,PTH,ViaDrill
T3C0.500
; #@! TA.AperFunction,Plated,PTH,ComponentDrill
T4C0.550
; #@! TA.AperFunction,Plated,PTH,ComponentDrill
T5C0.850
; #@! TA.AperFunction,Plated,PTH,ComponentDrill
T6C1.000
; #@! TA.AperFunction,NonPlated,NPTH,ComponentDrill
T7C0.800
; #@! TA.AperFunction,NonPlated,NPTH,ComponentDrill
T8C0.900
; #@! TA.AperFunction,NonPlated,NPTH,ComponentDrill
T9C2.200
%
G90
G05
T1
X139.5Y-109.0
X139.718Y-110.36
X139.724Y-113.747
X140.454Y-100.928
X144.0Y-106.5
X144.252Y-102.625
X148.752Y-108.224
X153.443Y-103.481
X161.654Y-112.793
X162.0Y-108.307
X162.009Y-109.137
X162.523Y-112.793
X163.0Y-102.859
X165.969Y-112.921
T2
X134.644Y-106.743
X138.893Y-102.847
X144.667Y-113.271
X146.615Y-113.271
X147.807Y-116.006
X150.0Y-116.0
X165.829Y-110.207
T3
X137.807Y-96.633
T6
X141.88Y-93.9
X143.7Y-119.0
X144.42Y-93.9
X146.24Y-119.0
X146.96Y-93.9
X148.78Y-119.0
X149.5Y-93.9
X151.32Y-119.0
X154.38Y-93.9
X156.92Y-93.9
X159.46Y-93.9
X162.0Y-93.9
T7
X165.2Y-101.659
X165.2Y-106.659
T8
X133.029Y-93.746
X136.029Y-93.746
T9
X127.0Y-94.4
X127.0Y-118.4
X167.5Y-94.4
X167.5Y-118.4
T4
G00X167.625Y-100.284
M15
G01X168.275Y-100.284
M16
G05
G00X167.625Y-108.034
M15
G01X168.275Y-108.034
M16
G05
T5
G00X163.875Y-100.434
M15
G01X164.425Y-100.434
M16
G05
G00X163.875Y-107.884
M15
G01X164.425Y-107.884
M16
G05
M30
