%TF.GenerationSoftware,KiCad,Pcbnew,8.0.6*%
%TF.CreationDate,2024-12-16T15:44:53-05:00*%
%TF.ProjectId,stm32,73746d33-322e-46b6-9963-61645f706362,rev?*%
%TF.SameCoordinates,Original*%
%TF.FileFunction,Legend,Top*%
%TF.FilePolarity,Positive*%
%FSLAX46Y46*%
G04 Gerber Fmt 4.6, Leading zero omitted, Abs format (unit mm)*
G04 Created by KiCad (PCBNEW 8.0.6) date 2024-12-16 15:44:53*
%MOMM*%
%LPD*%
G01*
G04 APERTURE LIST*
%ADD10C,0.150000*%
%ADD11C,0.000000*%
%ADD12C,0.120000*%
G04 APERTURE END LIST*
D10*
X141960999Y-99895218D02*
X141913380Y-99942838D01*
X141913380Y-99942838D02*
X141770523Y-99990457D01*
X141770523Y-99990457D02*
X141675285Y-99990457D01*
X141675285Y-99990457D02*
X141532428Y-99942838D01*
X141532428Y-99942838D02*
X141437190Y-99847599D01*
X141437190Y-99847599D02*
X141389571Y-99752361D01*
X141389571Y-99752361D02*
X141341952Y-99561885D01*
X141341952Y-99561885D02*
X141341952Y-99419028D01*
X141341952Y-99419028D02*
X141389571Y-99228552D01*
X141389571Y-99228552D02*
X141437190Y-99133314D01*
X141437190Y-99133314D02*
X141532428Y-99038076D01*
X141532428Y-99038076D02*
X141675285Y-98990457D01*
X141675285Y-98990457D02*
X141770523Y-98990457D01*
X141770523Y-98990457D02*
X141913380Y-99038076D01*
X141913380Y-99038076D02*
X141960999Y-99085695D01*
X142865761Y-98990457D02*
X142389571Y-98990457D01*
X142389571Y-98990457D02*
X142341952Y-99466647D01*
X142341952Y-99466647D02*
X142389571Y-99419028D01*
X142389571Y-99419028D02*
X142484809Y-99371409D01*
X142484809Y-99371409D02*
X142722904Y-99371409D01*
X142722904Y-99371409D02*
X142818142Y-99419028D01*
X142818142Y-99419028D02*
X142865761Y-99466647D01*
X142865761Y-99466647D02*
X142913380Y-99561885D01*
X142913380Y-99561885D02*
X142913380Y-99799980D01*
X142913380Y-99799980D02*
X142865761Y-99895218D01*
X142865761Y-99895218D02*
X142818142Y-99942838D01*
X142818142Y-99942838D02*
X142722904Y-99990457D01*
X142722904Y-99990457D02*
X142484809Y-99990457D01*
X142484809Y-99990457D02*
X142389571Y-99942838D01*
X142389571Y-99942838D02*
X142341952Y-99895218D01*
X136522123Y-107660879D02*
X136474504Y-107708499D01*
X136474504Y-107708499D02*
X136331647Y-107756118D01*
X136331647Y-107756118D02*
X136236409Y-107756118D01*
X136236409Y-107756118D02*
X136093552Y-107708499D01*
X136093552Y-107708499D02*
X135998314Y-107613260D01*
X135998314Y-107613260D02*
X135950695Y-107518022D01*
X135950695Y-107518022D02*
X135903076Y-107327546D01*
X135903076Y-107327546D02*
X135903076Y-107184689D01*
X135903076Y-107184689D02*
X135950695Y-106994213D01*
X135950695Y-106994213D02*
X135998314Y-106898975D01*
X135998314Y-106898975D02*
X136093552Y-106803737D01*
X136093552Y-106803737D02*
X136236409Y-106756118D01*
X136236409Y-106756118D02*
X136331647Y-106756118D01*
X136331647Y-106756118D02*
X136474504Y-106803737D01*
X136474504Y-106803737D02*
X136522123Y-106851356D01*
X137474504Y-107756118D02*
X136903076Y-107756118D01*
X137188790Y-107756118D02*
X137188790Y-106756118D01*
X137188790Y-106756118D02*
X137093552Y-106898975D01*
X137093552Y-106898975D02*
X136998314Y-106994213D01*
X136998314Y-106994213D02*
X136903076Y-107041832D01*
X138426885Y-107756118D02*
X137855457Y-107756118D01*
X138141171Y-107756118D02*
X138141171Y-106756118D01*
X138141171Y-106756118D02*
X138045933Y-106898975D01*
X138045933Y-106898975D02*
X137950695Y-106994213D01*
X137950695Y-106994213D02*
X137855457Y-107041832D01*
X134333333Y-101354819D02*
X134000000Y-100878628D01*
X133761905Y-101354819D02*
X133761905Y-100354819D01*
X133761905Y-100354819D02*
X134142857Y-100354819D01*
X134142857Y-100354819D02*
X134238095Y-100402438D01*
X134238095Y-100402438D02*
X134285714Y-100450057D01*
X134285714Y-100450057D02*
X134333333Y-100545295D01*
X134333333Y-100545295D02*
X134333333Y-100688152D01*
X134333333Y-100688152D02*
X134285714Y-100783390D01*
X134285714Y-100783390D02*
X134238095Y-100831009D01*
X134238095Y-100831009D02*
X134142857Y-100878628D01*
X134142857Y-100878628D02*
X133761905Y-100878628D01*
X135285714Y-101354819D02*
X134714286Y-101354819D01*
X135000000Y-101354819D02*
X135000000Y-100354819D01*
X135000000Y-100354819D02*
X134904762Y-100497676D01*
X134904762Y-100497676D02*
X134809524Y-100592914D01*
X134809524Y-100592914D02*
X134714286Y-100640533D01*
X132900424Y-103505181D02*
X133376615Y-103505181D01*
X132376615Y-103838514D02*
X132900424Y-103505181D01*
X132900424Y-103505181D02*
X132376615Y-103171848D01*
X133376615Y-102314705D02*
X133376615Y-102886133D01*
X133376615Y-102600419D02*
X132376615Y-102600419D01*
X132376615Y-102600419D02*
X132519472Y-102695657D01*
X132519472Y-102695657D02*
X132614710Y-102790895D01*
X132614710Y-102790895D02*
X132662329Y-102886133D01*
X141536382Y-96130371D02*
X141536382Y-96844656D01*
X141536382Y-96844656D02*
X141488763Y-96987513D01*
X141488763Y-96987513D02*
X141393525Y-97082752D01*
X141393525Y-97082752D02*
X141250668Y-97130371D01*
X141250668Y-97130371D02*
X141155430Y-97130371D01*
X141917335Y-96130371D02*
X142536382Y-96130371D01*
X142536382Y-96130371D02*
X142203049Y-96511323D01*
X142203049Y-96511323D02*
X142345906Y-96511323D01*
X142345906Y-96511323D02*
X142441144Y-96558942D01*
X142441144Y-96558942D02*
X142488763Y-96606561D01*
X142488763Y-96606561D02*
X142536382Y-96701799D01*
X142536382Y-96701799D02*
X142536382Y-96939894D01*
X142536382Y-96939894D02*
X142488763Y-97035132D01*
X142488763Y-97035132D02*
X142441144Y-97082752D01*
X142441144Y-97082752D02*
X142345906Y-97130371D01*
X142345906Y-97130371D02*
X142060192Y-97130371D01*
X142060192Y-97130371D02*
X141964954Y-97082752D01*
X141964954Y-97082752D02*
X141917335Y-97035132D01*
X130695793Y-97983575D02*
X130838650Y-98031194D01*
X130838650Y-98031194D02*
X131076745Y-98031194D01*
X131076745Y-98031194D02*
X131171983Y-97983575D01*
X131171983Y-97983575D02*
X131219602Y-97935955D01*
X131219602Y-97935955D02*
X131267221Y-97840717D01*
X131267221Y-97840717D02*
X131267221Y-97745479D01*
X131267221Y-97745479D02*
X131219602Y-97650241D01*
X131219602Y-97650241D02*
X131171983Y-97602622D01*
X131171983Y-97602622D02*
X131076745Y-97555003D01*
X131076745Y-97555003D02*
X130886269Y-97507384D01*
X130886269Y-97507384D02*
X130791031Y-97459765D01*
X130791031Y-97459765D02*
X130743412Y-97412146D01*
X130743412Y-97412146D02*
X130695793Y-97316908D01*
X130695793Y-97316908D02*
X130695793Y-97221670D01*
X130695793Y-97221670D02*
X130743412Y-97126432D01*
X130743412Y-97126432D02*
X130791031Y-97078813D01*
X130791031Y-97078813D02*
X130886269Y-97031194D01*
X130886269Y-97031194D02*
X131124364Y-97031194D01*
X131124364Y-97031194D02*
X131267221Y-97078813D01*
X131600555Y-97031194D02*
X131838650Y-98031194D01*
X131838650Y-98031194D02*
X132029126Y-97316908D01*
X132029126Y-97316908D02*
X132219602Y-98031194D01*
X132219602Y-98031194D02*
X132457698Y-97031194D01*
X133362459Y-98031194D02*
X132791031Y-98031194D01*
X133076745Y-98031194D02*
X133076745Y-97031194D01*
X133076745Y-97031194D02*
X132981507Y-97174051D01*
X132981507Y-97174051D02*
X132886269Y-97269289D01*
X132886269Y-97269289D02*
X132791031Y-97316908D01*
X145738095Y-99104819D02*
X145738095Y-99914342D01*
X145738095Y-99914342D02*
X145785714Y-100009580D01*
X145785714Y-100009580D02*
X145833333Y-100057200D01*
X145833333Y-100057200D02*
X145928571Y-100104819D01*
X145928571Y-100104819D02*
X146119047Y-100104819D01*
X146119047Y-100104819D02*
X146214285Y-100057200D01*
X146214285Y-100057200D02*
X146261904Y-100009580D01*
X146261904Y-100009580D02*
X146309523Y-99914342D01*
X146309523Y-99914342D02*
X146309523Y-99104819D01*
X147309523Y-100104819D02*
X146738095Y-100104819D01*
X147023809Y-100104819D02*
X147023809Y-99104819D01*
X147023809Y-99104819D02*
X146928571Y-99247676D01*
X146928571Y-99247676D02*
X146833333Y-99342914D01*
X146833333Y-99342914D02*
X146738095Y-99390533D01*
X139204733Y-100359580D02*
X139157114Y-100407200D01*
X139157114Y-100407200D02*
X139014257Y-100454819D01*
X139014257Y-100454819D02*
X138919019Y-100454819D01*
X138919019Y-100454819D02*
X138776162Y-100407200D01*
X138776162Y-100407200D02*
X138680924Y-100311961D01*
X138680924Y-100311961D02*
X138633305Y-100216723D01*
X138633305Y-100216723D02*
X138585686Y-100026247D01*
X138585686Y-100026247D02*
X138585686Y-99883390D01*
X138585686Y-99883390D02*
X138633305Y-99692914D01*
X138633305Y-99692914D02*
X138680924Y-99597676D01*
X138680924Y-99597676D02*
X138776162Y-99502438D01*
X138776162Y-99502438D02*
X138919019Y-99454819D01*
X138919019Y-99454819D02*
X139014257Y-99454819D01*
X139014257Y-99454819D02*
X139157114Y-99502438D01*
X139157114Y-99502438D02*
X139204733Y-99550057D01*
X140061876Y-99788152D02*
X140061876Y-100454819D01*
X139823781Y-99407200D02*
X139585686Y-100121485D01*
X139585686Y-100121485D02*
X140204733Y-100121485D01*
X140982291Y-104643598D02*
X141029911Y-104691217D01*
X141029911Y-104691217D02*
X141077530Y-104834074D01*
X141077530Y-104834074D02*
X141077530Y-104929312D01*
X141077530Y-104929312D02*
X141029911Y-105072169D01*
X141029911Y-105072169D02*
X140934672Y-105167407D01*
X140934672Y-105167407D02*
X140839434Y-105215026D01*
X140839434Y-105215026D02*
X140648958Y-105262645D01*
X140648958Y-105262645D02*
X140506101Y-105262645D01*
X140506101Y-105262645D02*
X140315625Y-105215026D01*
X140315625Y-105215026D02*
X140220387Y-105167407D01*
X140220387Y-105167407D02*
X140125149Y-105072169D01*
X140125149Y-105072169D02*
X140077530Y-104929312D01*
X140077530Y-104929312D02*
X140077530Y-104834074D01*
X140077530Y-104834074D02*
X140125149Y-104691217D01*
X140125149Y-104691217D02*
X140172768Y-104643598D01*
X140077530Y-103786455D02*
X140077530Y-103976931D01*
X140077530Y-103976931D02*
X140125149Y-104072169D01*
X140125149Y-104072169D02*
X140172768Y-104119788D01*
X140172768Y-104119788D02*
X140315625Y-104215026D01*
X140315625Y-104215026D02*
X140506101Y-104262645D01*
X140506101Y-104262645D02*
X140887053Y-104262645D01*
X140887053Y-104262645D02*
X140982291Y-104215026D01*
X140982291Y-104215026D02*
X141029911Y-104167407D01*
X141029911Y-104167407D02*
X141077530Y-104072169D01*
X141077530Y-104072169D02*
X141077530Y-103881693D01*
X141077530Y-103881693D02*
X141029911Y-103786455D01*
X141029911Y-103786455D02*
X140982291Y-103738836D01*
X140982291Y-103738836D02*
X140887053Y-103691217D01*
X140887053Y-103691217D02*
X140648958Y-103691217D01*
X140648958Y-103691217D02*
X140553720Y-103738836D01*
X140553720Y-103738836D02*
X140506101Y-103786455D01*
X140506101Y-103786455D02*
X140458482Y-103881693D01*
X140458482Y-103881693D02*
X140458482Y-104072169D01*
X140458482Y-104072169D02*
X140506101Y-104167407D01*
X140506101Y-104167407D02*
X140553720Y-104215026D01*
X140553720Y-104215026D02*
X140648958Y-104262645D01*
X163146268Y-97834620D02*
X163146268Y-98548905D01*
X163146268Y-98548905D02*
X163098649Y-98691762D01*
X163098649Y-98691762D02*
X163003411Y-98787001D01*
X163003411Y-98787001D02*
X162860554Y-98834620D01*
X162860554Y-98834620D02*
X162765316Y-98834620D01*
X164146268Y-98834620D02*
X163574840Y-98834620D01*
X163860554Y-98834620D02*
X163860554Y-97834620D01*
X163860554Y-97834620D02*
X163765316Y-97977477D01*
X163765316Y-97977477D02*
X163670078Y-98072715D01*
X163670078Y-98072715D02*
X163574840Y-98120334D01*
X155643052Y-109108928D02*
X155595433Y-109156548D01*
X155595433Y-109156548D02*
X155452576Y-109204167D01*
X155452576Y-109204167D02*
X155357338Y-109204167D01*
X155357338Y-109204167D02*
X155214481Y-109156548D01*
X155214481Y-109156548D02*
X155119243Y-109061309D01*
X155119243Y-109061309D02*
X155071624Y-108966071D01*
X155071624Y-108966071D02*
X155024005Y-108775595D01*
X155024005Y-108775595D02*
X155024005Y-108632738D01*
X155024005Y-108632738D02*
X155071624Y-108442262D01*
X155071624Y-108442262D02*
X155119243Y-108347024D01*
X155119243Y-108347024D02*
X155214481Y-108251786D01*
X155214481Y-108251786D02*
X155357338Y-108204167D01*
X155357338Y-108204167D02*
X155452576Y-108204167D01*
X155452576Y-108204167D02*
X155595433Y-108251786D01*
X155595433Y-108251786D02*
X155643052Y-108299405D01*
X156595433Y-109204167D02*
X156024005Y-109204167D01*
X156309719Y-109204167D02*
X156309719Y-108204167D01*
X156309719Y-108204167D02*
X156214481Y-108347024D01*
X156214481Y-108347024D02*
X156119243Y-108442262D01*
X156119243Y-108442262D02*
X156024005Y-108489881D01*
X156928767Y-108204167D02*
X157547814Y-108204167D01*
X157547814Y-108204167D02*
X157214481Y-108585119D01*
X157214481Y-108585119D02*
X157357338Y-108585119D01*
X157357338Y-108585119D02*
X157452576Y-108632738D01*
X157452576Y-108632738D02*
X157500195Y-108680357D01*
X157500195Y-108680357D02*
X157547814Y-108775595D01*
X157547814Y-108775595D02*
X157547814Y-109013690D01*
X157547814Y-109013690D02*
X157500195Y-109108928D01*
X157500195Y-109108928D02*
X157452576Y-109156548D01*
X157452576Y-109156548D02*
X157357338Y-109204167D01*
X157357338Y-109204167D02*
X157071624Y-109204167D01*
X157071624Y-109204167D02*
X156976386Y-109156548D01*
X156976386Y-109156548D02*
X156928767Y-109108928D01*
X150961199Y-110814578D02*
X150913580Y-110862198D01*
X150913580Y-110862198D02*
X150770723Y-110909817D01*
X150770723Y-110909817D02*
X150675485Y-110909817D01*
X150675485Y-110909817D02*
X150532628Y-110862198D01*
X150532628Y-110862198D02*
X150437390Y-110766959D01*
X150437390Y-110766959D02*
X150389771Y-110671721D01*
X150389771Y-110671721D02*
X150342152Y-110481245D01*
X150342152Y-110481245D02*
X150342152Y-110338388D01*
X150342152Y-110338388D02*
X150389771Y-110147912D01*
X150389771Y-110147912D02*
X150437390Y-110052674D01*
X150437390Y-110052674D02*
X150532628Y-109957436D01*
X150532628Y-109957436D02*
X150675485Y-109909817D01*
X150675485Y-109909817D02*
X150770723Y-109909817D01*
X150770723Y-109909817D02*
X150913580Y-109957436D01*
X150913580Y-109957436D02*
X150961199Y-110005055D01*
X151913580Y-110909817D02*
X151342152Y-110909817D01*
X151627866Y-110909817D02*
X151627866Y-109909817D01*
X151627866Y-109909817D02*
X151532628Y-110052674D01*
X151532628Y-110052674D02*
X151437390Y-110147912D01*
X151437390Y-110147912D02*
X151342152Y-110195531D01*
X153884212Y-102359580D02*
X153836593Y-102407200D01*
X153836593Y-102407200D02*
X153693736Y-102454819D01*
X153693736Y-102454819D02*
X153598498Y-102454819D01*
X153598498Y-102454819D02*
X153455641Y-102407200D01*
X153455641Y-102407200D02*
X153360403Y-102311961D01*
X153360403Y-102311961D02*
X153312784Y-102216723D01*
X153312784Y-102216723D02*
X153265165Y-102026247D01*
X153265165Y-102026247D02*
X153265165Y-101883390D01*
X153265165Y-101883390D02*
X153312784Y-101692914D01*
X153312784Y-101692914D02*
X153360403Y-101597676D01*
X153360403Y-101597676D02*
X153455641Y-101502438D01*
X153455641Y-101502438D02*
X153598498Y-101454819D01*
X153598498Y-101454819D02*
X153693736Y-101454819D01*
X153693736Y-101454819D02*
X153836593Y-101502438D01*
X153836593Y-101502438D02*
X153884212Y-101550057D01*
X154217546Y-101454819D02*
X154836593Y-101454819D01*
X154836593Y-101454819D02*
X154503260Y-101835771D01*
X154503260Y-101835771D02*
X154646117Y-101835771D01*
X154646117Y-101835771D02*
X154741355Y-101883390D01*
X154741355Y-101883390D02*
X154788974Y-101931009D01*
X154788974Y-101931009D02*
X154836593Y-102026247D01*
X154836593Y-102026247D02*
X154836593Y-102264342D01*
X154836593Y-102264342D02*
X154788974Y-102359580D01*
X154788974Y-102359580D02*
X154741355Y-102407200D01*
X154741355Y-102407200D02*
X154646117Y-102454819D01*
X154646117Y-102454819D02*
X154360403Y-102454819D01*
X154360403Y-102454819D02*
X154265165Y-102407200D01*
X154265165Y-102407200D02*
X154217546Y-102359580D01*
X143833333Y-115454819D02*
X143500000Y-114978628D01*
X143261905Y-115454819D02*
X143261905Y-114454819D01*
X143261905Y-114454819D02*
X143642857Y-114454819D01*
X143642857Y-114454819D02*
X143738095Y-114502438D01*
X143738095Y-114502438D02*
X143785714Y-114550057D01*
X143785714Y-114550057D02*
X143833333Y-114645295D01*
X143833333Y-114645295D02*
X143833333Y-114788152D01*
X143833333Y-114788152D02*
X143785714Y-114883390D01*
X143785714Y-114883390D02*
X143738095Y-114931009D01*
X143738095Y-114931009D02*
X143642857Y-114978628D01*
X143642857Y-114978628D02*
X143261905Y-114978628D01*
X144690476Y-114788152D02*
X144690476Y-115454819D01*
X144452381Y-114407200D02*
X144214286Y-115121485D01*
X144214286Y-115121485D02*
X144833333Y-115121485D01*
X137859580Y-109166666D02*
X137907200Y-109214285D01*
X137907200Y-109214285D02*
X137954819Y-109357142D01*
X137954819Y-109357142D02*
X137954819Y-109452380D01*
X137954819Y-109452380D02*
X137907200Y-109595237D01*
X137907200Y-109595237D02*
X137811961Y-109690475D01*
X137811961Y-109690475D02*
X137716723Y-109738094D01*
X137716723Y-109738094D02*
X137526247Y-109785713D01*
X137526247Y-109785713D02*
X137383390Y-109785713D01*
X137383390Y-109785713D02*
X137192914Y-109738094D01*
X137192914Y-109738094D02*
X137097676Y-109690475D01*
X137097676Y-109690475D02*
X137002438Y-109595237D01*
X137002438Y-109595237D02*
X136954819Y-109452380D01*
X136954819Y-109452380D02*
X136954819Y-109357142D01*
X136954819Y-109357142D02*
X137002438Y-109214285D01*
X137002438Y-109214285D02*
X137050057Y-109166666D01*
X137954819Y-108690475D02*
X137954819Y-108499999D01*
X137954819Y-108499999D02*
X137907200Y-108404761D01*
X137907200Y-108404761D02*
X137859580Y-108357142D01*
X137859580Y-108357142D02*
X137716723Y-108261904D01*
X137716723Y-108261904D02*
X137526247Y-108214285D01*
X137526247Y-108214285D02*
X137145295Y-108214285D01*
X137145295Y-108214285D02*
X137050057Y-108261904D01*
X137050057Y-108261904D02*
X137002438Y-108309523D01*
X137002438Y-108309523D02*
X136954819Y-108404761D01*
X136954819Y-108404761D02*
X136954819Y-108595237D01*
X136954819Y-108595237D02*
X137002438Y-108690475D01*
X137002438Y-108690475D02*
X137050057Y-108738094D01*
X137050057Y-108738094D02*
X137145295Y-108785713D01*
X137145295Y-108785713D02*
X137383390Y-108785713D01*
X137383390Y-108785713D02*
X137478628Y-108738094D01*
X137478628Y-108738094D02*
X137526247Y-108690475D01*
X137526247Y-108690475D02*
X137573866Y-108595237D01*
X137573866Y-108595237D02*
X137573866Y-108404761D01*
X137573866Y-108404761D02*
X137526247Y-108309523D01*
X137526247Y-108309523D02*
X137478628Y-108261904D01*
X137478628Y-108261904D02*
X137383390Y-108214285D01*
X166383115Y-115259580D02*
X166335496Y-115307200D01*
X166335496Y-115307200D02*
X166192639Y-115354819D01*
X166192639Y-115354819D02*
X166097401Y-115354819D01*
X166097401Y-115354819D02*
X165954544Y-115307200D01*
X165954544Y-115307200D02*
X165859306Y-115211961D01*
X165859306Y-115211961D02*
X165811687Y-115116723D01*
X165811687Y-115116723D02*
X165764068Y-114926247D01*
X165764068Y-114926247D02*
X165764068Y-114783390D01*
X165764068Y-114783390D02*
X165811687Y-114592914D01*
X165811687Y-114592914D02*
X165859306Y-114497676D01*
X165859306Y-114497676D02*
X165954544Y-114402438D01*
X165954544Y-114402438D02*
X166097401Y-114354819D01*
X166097401Y-114354819D02*
X166192639Y-114354819D01*
X166192639Y-114354819D02*
X166335496Y-114402438D01*
X166335496Y-114402438D02*
X166383115Y-114450057D01*
X167335496Y-115354819D02*
X166764068Y-115354819D01*
X167049782Y-115354819D02*
X167049782Y-114354819D01*
X167049782Y-114354819D02*
X166954544Y-114497676D01*
X166954544Y-114497676D02*
X166859306Y-114592914D01*
X166859306Y-114592914D02*
X166764068Y-114640533D01*
X167716449Y-114450057D02*
X167764068Y-114402438D01*
X167764068Y-114402438D02*
X167859306Y-114354819D01*
X167859306Y-114354819D02*
X168097401Y-114354819D01*
X168097401Y-114354819D02*
X168192639Y-114402438D01*
X168192639Y-114402438D02*
X168240258Y-114450057D01*
X168240258Y-114450057D02*
X168287877Y-114545295D01*
X168287877Y-114545295D02*
X168287877Y-114640533D01*
X168287877Y-114640533D02*
X168240258Y-114783390D01*
X168240258Y-114783390D02*
X167668830Y-115354819D01*
X167668830Y-115354819D02*
X168287877Y-115354819D01*
X169021173Y-111983451D02*
X168687840Y-111507260D01*
X168449745Y-111983451D02*
X168449745Y-110983451D01*
X168449745Y-110983451D02*
X168830697Y-110983451D01*
X168830697Y-110983451D02*
X168925935Y-111031070D01*
X168925935Y-111031070D02*
X168973554Y-111078689D01*
X168973554Y-111078689D02*
X169021173Y-111173927D01*
X169021173Y-111173927D02*
X169021173Y-111316784D01*
X169021173Y-111316784D02*
X168973554Y-111412022D01*
X168973554Y-111412022D02*
X168925935Y-111459641D01*
X168925935Y-111459641D02*
X168830697Y-111507260D01*
X168830697Y-111507260D02*
X168449745Y-111507260D01*
X169354507Y-110983451D02*
X169973554Y-110983451D01*
X169973554Y-110983451D02*
X169640221Y-111364403D01*
X169640221Y-111364403D02*
X169783078Y-111364403D01*
X169783078Y-111364403D02*
X169878316Y-111412022D01*
X169878316Y-111412022D02*
X169925935Y-111459641D01*
X169925935Y-111459641D02*
X169973554Y-111554879D01*
X169973554Y-111554879D02*
X169973554Y-111792974D01*
X169973554Y-111792974D02*
X169925935Y-111888212D01*
X169925935Y-111888212D02*
X169878316Y-111935832D01*
X169878316Y-111935832D02*
X169783078Y-111983451D01*
X169783078Y-111983451D02*
X169497364Y-111983451D01*
X169497364Y-111983451D02*
X169402126Y-111935832D01*
X169402126Y-111935832D02*
X169354507Y-111888212D01*
X140643322Y-114244264D02*
X140309989Y-114244264D01*
X140309989Y-114768074D02*
X140309989Y-113768074D01*
X140309989Y-113768074D02*
X140786179Y-113768074D01*
X141500465Y-114244264D02*
X141643322Y-114291883D01*
X141643322Y-114291883D02*
X141690941Y-114339502D01*
X141690941Y-114339502D02*
X141738560Y-114434740D01*
X141738560Y-114434740D02*
X141738560Y-114577597D01*
X141738560Y-114577597D02*
X141690941Y-114672835D01*
X141690941Y-114672835D02*
X141643322Y-114720455D01*
X141643322Y-114720455D02*
X141548084Y-114768074D01*
X141548084Y-114768074D02*
X141167132Y-114768074D01*
X141167132Y-114768074D02*
X141167132Y-113768074D01*
X141167132Y-113768074D02*
X141500465Y-113768074D01*
X141500465Y-113768074D02*
X141595703Y-113815693D01*
X141595703Y-113815693D02*
X141643322Y-113863312D01*
X141643322Y-113863312D02*
X141690941Y-113958550D01*
X141690941Y-113958550D02*
X141690941Y-114053788D01*
X141690941Y-114053788D02*
X141643322Y-114149026D01*
X141643322Y-114149026D02*
X141595703Y-114196645D01*
X141595703Y-114196645D02*
X141500465Y-114244264D01*
X141500465Y-114244264D02*
X141167132Y-114244264D01*
X142690941Y-114768074D02*
X142119513Y-114768074D01*
X142405227Y-114768074D02*
X142405227Y-113768074D01*
X142405227Y-113768074D02*
X142309989Y-113910931D01*
X142309989Y-113910931D02*
X142214751Y-114006169D01*
X142214751Y-114006169D02*
X142119513Y-114053788D01*
X155524005Y-116704167D02*
X155524005Y-117513690D01*
X155524005Y-117513690D02*
X155571624Y-117608928D01*
X155571624Y-117608928D02*
X155619243Y-117656548D01*
X155619243Y-117656548D02*
X155714481Y-117704167D01*
X155714481Y-117704167D02*
X155904957Y-117704167D01*
X155904957Y-117704167D02*
X156000195Y-117656548D01*
X156000195Y-117656548D02*
X156047814Y-117608928D01*
X156047814Y-117608928D02*
X156095433Y-117513690D01*
X156095433Y-117513690D02*
X156095433Y-116704167D01*
X156524005Y-116799405D02*
X156571624Y-116751786D01*
X156571624Y-116751786D02*
X156666862Y-116704167D01*
X156666862Y-116704167D02*
X156904957Y-116704167D01*
X156904957Y-116704167D02*
X157000195Y-116751786D01*
X157000195Y-116751786D02*
X157047814Y-116799405D01*
X157047814Y-116799405D02*
X157095433Y-116894643D01*
X157095433Y-116894643D02*
X157095433Y-116989881D01*
X157095433Y-116989881D02*
X157047814Y-117132738D01*
X157047814Y-117132738D02*
X156476386Y-117704167D01*
X156476386Y-117704167D02*
X157095433Y-117704167D01*
X158703963Y-102278637D02*
X158370630Y-101802446D01*
X158132535Y-102278637D02*
X158132535Y-101278637D01*
X158132535Y-101278637D02*
X158513487Y-101278637D01*
X158513487Y-101278637D02*
X158608725Y-101326256D01*
X158608725Y-101326256D02*
X158656344Y-101373875D01*
X158656344Y-101373875D02*
X158703963Y-101469113D01*
X158703963Y-101469113D02*
X158703963Y-101611970D01*
X158703963Y-101611970D02*
X158656344Y-101707208D01*
X158656344Y-101707208D02*
X158608725Y-101754827D01*
X158608725Y-101754827D02*
X158513487Y-101802446D01*
X158513487Y-101802446D02*
X158132535Y-101802446D01*
X159084916Y-101373875D02*
X159132535Y-101326256D01*
X159132535Y-101326256D02*
X159227773Y-101278637D01*
X159227773Y-101278637D02*
X159465868Y-101278637D01*
X159465868Y-101278637D02*
X159561106Y-101326256D01*
X159561106Y-101326256D02*
X159608725Y-101373875D01*
X159608725Y-101373875D02*
X159656344Y-101469113D01*
X159656344Y-101469113D02*
X159656344Y-101564351D01*
X159656344Y-101564351D02*
X159608725Y-101707208D01*
X159608725Y-101707208D02*
X159037297Y-102278637D01*
X159037297Y-102278637D02*
X159656344Y-102278637D01*
X150153333Y-114454819D02*
X149820000Y-113978628D01*
X149581905Y-114454819D02*
X149581905Y-113454819D01*
X149581905Y-113454819D02*
X149962857Y-113454819D01*
X149962857Y-113454819D02*
X150058095Y-113502438D01*
X150058095Y-113502438D02*
X150105714Y-113550057D01*
X150105714Y-113550057D02*
X150153333Y-113645295D01*
X150153333Y-113645295D02*
X150153333Y-113788152D01*
X150153333Y-113788152D02*
X150105714Y-113883390D01*
X150105714Y-113883390D02*
X150058095Y-113931009D01*
X150058095Y-113931009D02*
X149962857Y-113978628D01*
X149962857Y-113978628D02*
X149581905Y-113978628D01*
X151058095Y-113454819D02*
X150581905Y-113454819D01*
X150581905Y-113454819D02*
X150534286Y-113931009D01*
X150534286Y-113931009D02*
X150581905Y-113883390D01*
X150581905Y-113883390D02*
X150677143Y-113835771D01*
X150677143Y-113835771D02*
X150915238Y-113835771D01*
X150915238Y-113835771D02*
X151010476Y-113883390D01*
X151010476Y-113883390D02*
X151058095Y-113931009D01*
X151058095Y-113931009D02*
X151105714Y-114026247D01*
X151105714Y-114026247D02*
X151105714Y-114264342D01*
X151105714Y-114264342D02*
X151058095Y-114359580D01*
X151058095Y-114359580D02*
X151010476Y-114407200D01*
X151010476Y-114407200D02*
X150915238Y-114454819D01*
X150915238Y-114454819D02*
X150677143Y-114454819D01*
X150677143Y-114454819D02*
X150581905Y-114407200D01*
X150581905Y-114407200D02*
X150534286Y-114359580D01*
X164761905Y-111954819D02*
X164761905Y-110954819D01*
X164761905Y-110954819D02*
X165000000Y-110954819D01*
X165000000Y-110954819D02*
X165142857Y-111002438D01*
X165142857Y-111002438D02*
X165238095Y-111097676D01*
X165238095Y-111097676D02*
X165285714Y-111192914D01*
X165285714Y-111192914D02*
X165333333Y-111383390D01*
X165333333Y-111383390D02*
X165333333Y-111526247D01*
X165333333Y-111526247D02*
X165285714Y-111716723D01*
X165285714Y-111716723D02*
X165238095Y-111811961D01*
X165238095Y-111811961D02*
X165142857Y-111907200D01*
X165142857Y-111907200D02*
X165000000Y-111954819D01*
X165000000Y-111954819D02*
X164761905Y-111954819D01*
X166285714Y-111954819D02*
X165714286Y-111954819D01*
X166000000Y-111954819D02*
X166000000Y-110954819D01*
X166000000Y-110954819D02*
X165904762Y-111097676D01*
X165904762Y-111097676D02*
X165809524Y-111192914D01*
X165809524Y-111192914D02*
X165714286Y-111240533D01*
X137833333Y-113140413D02*
X137785714Y-113188033D01*
X137785714Y-113188033D02*
X137642857Y-113235652D01*
X137642857Y-113235652D02*
X137547619Y-113235652D01*
X137547619Y-113235652D02*
X137404762Y-113188033D01*
X137404762Y-113188033D02*
X137309524Y-113092794D01*
X137309524Y-113092794D02*
X137261905Y-112997556D01*
X137261905Y-112997556D02*
X137214286Y-112807080D01*
X137214286Y-112807080D02*
X137214286Y-112664223D01*
X137214286Y-112664223D02*
X137261905Y-112473747D01*
X137261905Y-112473747D02*
X137309524Y-112378509D01*
X137309524Y-112378509D02*
X137404762Y-112283271D01*
X137404762Y-112283271D02*
X137547619Y-112235652D01*
X137547619Y-112235652D02*
X137642857Y-112235652D01*
X137642857Y-112235652D02*
X137785714Y-112283271D01*
X137785714Y-112283271D02*
X137833333Y-112330890D01*
X138404762Y-112664223D02*
X138309524Y-112616604D01*
X138309524Y-112616604D02*
X138261905Y-112568985D01*
X138261905Y-112568985D02*
X138214286Y-112473747D01*
X138214286Y-112473747D02*
X138214286Y-112426128D01*
X138214286Y-112426128D02*
X138261905Y-112330890D01*
X138261905Y-112330890D02*
X138309524Y-112283271D01*
X138309524Y-112283271D02*
X138404762Y-112235652D01*
X138404762Y-112235652D02*
X138595238Y-112235652D01*
X138595238Y-112235652D02*
X138690476Y-112283271D01*
X138690476Y-112283271D02*
X138738095Y-112330890D01*
X138738095Y-112330890D02*
X138785714Y-112426128D01*
X138785714Y-112426128D02*
X138785714Y-112473747D01*
X138785714Y-112473747D02*
X138738095Y-112568985D01*
X138738095Y-112568985D02*
X138690476Y-112616604D01*
X138690476Y-112616604D02*
X138595238Y-112664223D01*
X138595238Y-112664223D02*
X138404762Y-112664223D01*
X138404762Y-112664223D02*
X138309524Y-112711842D01*
X138309524Y-112711842D02*
X138261905Y-112759461D01*
X138261905Y-112759461D02*
X138214286Y-112854699D01*
X138214286Y-112854699D02*
X138214286Y-113045175D01*
X138214286Y-113045175D02*
X138261905Y-113140413D01*
X138261905Y-113140413D02*
X138309524Y-113188033D01*
X138309524Y-113188033D02*
X138404762Y-113235652D01*
X138404762Y-113235652D02*
X138595238Y-113235652D01*
X138595238Y-113235652D02*
X138690476Y-113188033D01*
X138690476Y-113188033D02*
X138738095Y-113140413D01*
X138738095Y-113140413D02*
X138785714Y-113045175D01*
X138785714Y-113045175D02*
X138785714Y-112854699D01*
X138785714Y-112854699D02*
X138738095Y-112759461D01*
X138738095Y-112759461D02*
X138690476Y-112711842D01*
X138690476Y-112711842D02*
X138595238Y-112664223D01*
X140166666Y-119454819D02*
X140166666Y-120169104D01*
X140166666Y-120169104D02*
X140119047Y-120311961D01*
X140119047Y-120311961D02*
X140023809Y-120407200D01*
X140023809Y-120407200D02*
X139880952Y-120454819D01*
X139880952Y-120454819D02*
X139785714Y-120454819D01*
X141071428Y-119788152D02*
X141071428Y-120454819D01*
X140833333Y-119407200D02*
X140595238Y-120121485D01*
X140595238Y-120121485D02*
X141214285Y-120121485D01*
X136570965Y-101832385D02*
X136523346Y-101880005D01*
X136523346Y-101880005D02*
X136380489Y-101927624D01*
X136380489Y-101927624D02*
X136285251Y-101927624D01*
X136285251Y-101927624D02*
X136142394Y-101880005D01*
X136142394Y-101880005D02*
X136047156Y-101784766D01*
X136047156Y-101784766D02*
X135999537Y-101689528D01*
X135999537Y-101689528D02*
X135951918Y-101499052D01*
X135951918Y-101499052D02*
X135951918Y-101356195D01*
X135951918Y-101356195D02*
X135999537Y-101165719D01*
X135999537Y-101165719D02*
X136047156Y-101070481D01*
X136047156Y-101070481D02*
X136142394Y-100975243D01*
X136142394Y-100975243D02*
X136285251Y-100927624D01*
X136285251Y-100927624D02*
X136380489Y-100927624D01*
X136380489Y-100927624D02*
X136523346Y-100975243D01*
X136523346Y-100975243D02*
X136570965Y-101022862D01*
X137523346Y-101927624D02*
X136951918Y-101927624D01*
X137237632Y-101927624D02*
X137237632Y-100927624D01*
X137237632Y-100927624D02*
X137142394Y-101070481D01*
X137142394Y-101070481D02*
X137047156Y-101165719D01*
X137047156Y-101165719D02*
X136951918Y-101213338D01*
X138142394Y-100927624D02*
X138237632Y-100927624D01*
X138237632Y-100927624D02*
X138332870Y-100975243D01*
X138332870Y-100975243D02*
X138380489Y-101022862D01*
X138380489Y-101022862D02*
X138428108Y-101118100D01*
X138428108Y-101118100D02*
X138475727Y-101308576D01*
X138475727Y-101308576D02*
X138475727Y-101546671D01*
X138475727Y-101546671D02*
X138428108Y-101737147D01*
X138428108Y-101737147D02*
X138380489Y-101832385D01*
X138380489Y-101832385D02*
X138332870Y-101880005D01*
X138332870Y-101880005D02*
X138237632Y-101927624D01*
X138237632Y-101927624D02*
X138142394Y-101927624D01*
X138142394Y-101927624D02*
X138047156Y-101880005D01*
X138047156Y-101880005D02*
X137999537Y-101832385D01*
X137999537Y-101832385D02*
X137951918Y-101737147D01*
X137951918Y-101737147D02*
X137904299Y-101546671D01*
X137904299Y-101546671D02*
X137904299Y-101308576D01*
X137904299Y-101308576D02*
X137951918Y-101118100D01*
X137951918Y-101118100D02*
X137999537Y-101022862D01*
X137999537Y-101022862D02*
X138047156Y-100975243D01*
X138047156Y-100975243D02*
X138142394Y-100927624D01*
X138029372Y-111571155D02*
X137981753Y-111618775D01*
X137981753Y-111618775D02*
X137838896Y-111666394D01*
X137838896Y-111666394D02*
X137743658Y-111666394D01*
X137743658Y-111666394D02*
X137600801Y-111618775D01*
X137600801Y-111618775D02*
X137505563Y-111523536D01*
X137505563Y-111523536D02*
X137457944Y-111428298D01*
X137457944Y-111428298D02*
X137410325Y-111237822D01*
X137410325Y-111237822D02*
X137410325Y-111094965D01*
X137410325Y-111094965D02*
X137457944Y-110904489D01*
X137457944Y-110904489D02*
X137505563Y-110809251D01*
X137505563Y-110809251D02*
X137600801Y-110714013D01*
X137600801Y-110714013D02*
X137743658Y-110666394D01*
X137743658Y-110666394D02*
X137838896Y-110666394D01*
X137838896Y-110666394D02*
X137981753Y-110714013D01*
X137981753Y-110714013D02*
X138029372Y-110761632D01*
X138362706Y-110666394D02*
X139029372Y-110666394D01*
X139029372Y-110666394D02*
X138600801Y-111666394D01*
X153283760Y-96085351D02*
X153283760Y-96799636D01*
X153283760Y-96799636D02*
X153236141Y-96942493D01*
X153236141Y-96942493D02*
X153140903Y-97037732D01*
X153140903Y-97037732D02*
X152998046Y-97085351D01*
X152998046Y-97085351D02*
X152902808Y-97085351D01*
X153712332Y-96180589D02*
X153759951Y-96132970D01*
X153759951Y-96132970D02*
X153855189Y-96085351D01*
X153855189Y-96085351D02*
X154093284Y-96085351D01*
X154093284Y-96085351D02*
X154188522Y-96132970D01*
X154188522Y-96132970D02*
X154236141Y-96180589D01*
X154236141Y-96180589D02*
X154283760Y-96275827D01*
X154283760Y-96275827D02*
X154283760Y-96371065D01*
X154283760Y-96371065D02*
X154236141Y-96513922D01*
X154236141Y-96513922D02*
X153664713Y-97085351D01*
X153664713Y-97085351D02*
X154283760Y-97085351D01*
X145825812Y-98235643D02*
X145778193Y-98283263D01*
X145778193Y-98283263D02*
X145635336Y-98330882D01*
X145635336Y-98330882D02*
X145540098Y-98330882D01*
X145540098Y-98330882D02*
X145397241Y-98283263D01*
X145397241Y-98283263D02*
X145302003Y-98188024D01*
X145302003Y-98188024D02*
X145254384Y-98092786D01*
X145254384Y-98092786D02*
X145206765Y-97902310D01*
X145206765Y-97902310D02*
X145206765Y-97759453D01*
X145206765Y-97759453D02*
X145254384Y-97568977D01*
X145254384Y-97568977D02*
X145302003Y-97473739D01*
X145302003Y-97473739D02*
X145397241Y-97378501D01*
X145397241Y-97378501D02*
X145540098Y-97330882D01*
X145540098Y-97330882D02*
X145635336Y-97330882D01*
X145635336Y-97330882D02*
X145778193Y-97378501D01*
X145778193Y-97378501D02*
X145825812Y-97426120D01*
X146206765Y-97426120D02*
X146254384Y-97378501D01*
X146254384Y-97378501D02*
X146349622Y-97330882D01*
X146349622Y-97330882D02*
X146587717Y-97330882D01*
X146587717Y-97330882D02*
X146682955Y-97378501D01*
X146682955Y-97378501D02*
X146730574Y-97426120D01*
X146730574Y-97426120D02*
X146778193Y-97521358D01*
X146778193Y-97521358D02*
X146778193Y-97616596D01*
X146778193Y-97616596D02*
X146730574Y-97759453D01*
X146730574Y-97759453D02*
X146159146Y-98330882D01*
X146159146Y-98330882D02*
X146778193Y-98330882D01*
D11*
%TO.C,G\u002A\u002A\u002A*%
G36*
X130818416Y-113017396D02*
G01*
X130850588Y-113030242D01*
X130884148Y-113048043D01*
X130898006Y-113061867D01*
X130894140Y-113076342D01*
X130877547Y-113093386D01*
X130855827Y-113107460D01*
X130832967Y-113104603D01*
X130824519Y-113101024D01*
X130788633Y-113090356D01*
X130750241Y-113087353D01*
X130717027Y-113091680D01*
X130696676Y-113103002D01*
X130694571Y-113106691D01*
X130696718Y-113128911D01*
X130720258Y-113147143D01*
X130763429Y-113160187D01*
X130776457Y-113162404D01*
X130818414Y-113172990D01*
X130857851Y-113189470D01*
X130863397Y-113192633D01*
X130888938Y-113212153D01*
X130899347Y-113235379D01*
X130900919Y-113260699D01*
X130891179Y-113311709D01*
X130862125Y-113349723D01*
X130814006Y-113374442D01*
X130802760Y-113377603D01*
X130762704Y-113386670D01*
X130734679Y-113388876D01*
X130708393Y-113384123D01*
X130685170Y-113376480D01*
X130649504Y-113360275D01*
X130617342Y-113341071D01*
X130584500Y-113318067D01*
X130609597Y-113291353D01*
X130634693Y-113264640D01*
X130686746Y-113287666D01*
X130731169Y-113301264D01*
X130772352Y-113303437D01*
X130803586Y-113294385D01*
X130814636Y-113283854D01*
X130816116Y-113268846D01*
X130799527Y-113254895D01*
X130762883Y-113240768D01*
X130730561Y-113231726D01*
X130674060Y-113214648D01*
X130636976Y-113196496D01*
X130615447Y-113174717D01*
X130606092Y-113149452D01*
X130606754Y-113100972D01*
X130626181Y-113060704D01*
X130660716Y-113030430D01*
X130706705Y-113011932D01*
X130760490Y-113006993D01*
X130818416Y-113017396D01*
G37*
G36*
X127329408Y-113005942D02*
G01*
X127408518Y-113010496D01*
X127470171Y-113024838D01*
X127518613Y-113050210D01*
X127539106Y-113067325D01*
X127579096Y-113119249D01*
X127596509Y-113176164D01*
X127591173Y-113236581D01*
X127565290Y-113295192D01*
X127530162Y-113334471D01*
X127479526Y-113360981D01*
X127411509Y-113375439D01*
X127346901Y-113378808D01*
X127250689Y-113379064D01*
X127250689Y-113192470D01*
X127250689Y-113190527D01*
X127250689Y-113099174D01*
X127332324Y-113099174D01*
X127332324Y-113190527D01*
X127333254Y-113234651D01*
X127335718Y-113269289D01*
X127339229Y-113288213D01*
X127340098Y-113289654D01*
X127363206Y-113298500D01*
X127397973Y-113297148D01*
X127435855Y-113287059D01*
X127468309Y-113269691D01*
X127471374Y-113267237D01*
X127500237Y-113231486D01*
X127506051Y-113192467D01*
X127488797Y-113150596D01*
X127477063Y-113135055D01*
X127454767Y-113112645D01*
X127431119Y-113102088D01*
X127395928Y-113099203D01*
X127389597Y-113099174D01*
X127332324Y-113099174D01*
X127250689Y-113099174D01*
X127250689Y-113005877D01*
X127329408Y-113005942D01*
G37*
G36*
X127812765Y-113007540D02*
G01*
X127832585Y-113015361D01*
X127852499Y-113033587D01*
X127878776Y-113066465D01*
X127881464Y-113070019D01*
X127905960Y-113101928D01*
X127924364Y-113124897D01*
X127932838Y-113134143D01*
X127932920Y-113134160D01*
X127940885Y-113125601D01*
X127958957Y-113103100D01*
X127983315Y-113071423D01*
X127984702Y-113069588D01*
X128011466Y-113035456D01*
X128030925Y-113016380D01*
X128049215Y-113008352D01*
X128072468Y-113007365D01*
X128079400Y-113007726D01*
X128108366Y-113011121D01*
X128124287Y-113016263D01*
X128125345Y-113017921D01*
X128118971Y-113030754D01*
X128102382Y-113056786D01*
X128079380Y-113090571D01*
X128053766Y-113126665D01*
X128029340Y-113159622D01*
X128009903Y-113183996D01*
X128007493Y-113186756D01*
X127994015Y-113211577D01*
X127985999Y-113251873D01*
X127983081Y-113291715D01*
X127979569Y-113373233D01*
X127935836Y-113376852D01*
X127892103Y-113380472D01*
X127892103Y-113300033D01*
X127892103Y-113219594D01*
X127816300Y-113123380D01*
X127784967Y-113082653D01*
X127759941Y-113048302D01*
X127744273Y-113024626D01*
X127740496Y-113016522D01*
X127750839Y-113009833D01*
X127776653Y-113006135D01*
X127786767Y-113005877D01*
X127812765Y-113007540D01*
G37*
G36*
X128324486Y-113024961D02*
G01*
X128361226Y-113054500D01*
X128411632Y-113101270D01*
X128451637Y-113139347D01*
X128485974Y-113171088D01*
X128510964Y-113193153D01*
X128522879Y-113202189D01*
X128527806Y-113193347D01*
X128531522Y-113166410D01*
X128533404Y-113126602D01*
X128533517Y-113113084D01*
X128533517Y-113020091D01*
X128574691Y-113015284D01*
X128603428Y-113013482D01*
X128620361Y-113015318D01*
X128621339Y-113015952D01*
X128623231Y-113028914D01*
X128624840Y-113061048D01*
X128626042Y-113108203D01*
X128626714Y-113166227D01*
X128626814Y-113200245D01*
X128626690Y-113268282D01*
X128626002Y-113316430D01*
X128624281Y-113348123D01*
X128621055Y-113366796D01*
X128615852Y-113375885D01*
X128608202Y-113378824D01*
X128602282Y-113379064D01*
X128583070Y-113371278D01*
X128551304Y-113349809D01*
X128510901Y-113317492D01*
X128481409Y-113291598D01*
X128442155Y-113256528D01*
X128409213Y-113228161D01*
X128386364Y-113209684D01*
X128377658Y-113204133D01*
X128374116Y-113214843D01*
X128371496Y-113243173D01*
X128370281Y-113283424D01*
X128370248Y-113291598D01*
X128370248Y-113379064D01*
X128329431Y-113379064D01*
X128288614Y-113379064D01*
X128286670Y-113215795D01*
X128285896Y-113155040D01*
X128285120Y-113101617D01*
X128284420Y-113060388D01*
X128283873Y-113036213D01*
X128283755Y-113033089D01*
X128287009Y-113014926D01*
X128300167Y-113011993D01*
X128324486Y-113024961D01*
G37*
G36*
X129007737Y-113007738D02*
G01*
X129023123Y-113015471D01*
X129038091Y-113032304D01*
X129054915Y-113061466D01*
X129075868Y-113106183D01*
X129100524Y-113163315D01*
X129123168Y-113215931D01*
X129145709Y-113267014D01*
X129164482Y-113308303D01*
X129170370Y-113320753D01*
X129195698Y-113373233D01*
X129153311Y-113377022D01*
X129120147Y-113375982D01*
X129099790Y-113363200D01*
X129094857Y-113356613D01*
X129083220Y-113343841D01*
X129065551Y-113336490D01*
X129035937Y-113333151D01*
X128993157Y-113332415D01*
X128947639Y-113333269D01*
X128919777Y-113336724D01*
X128903938Y-113344118D01*
X128895042Y-113355740D01*
X128877994Y-113372609D01*
X128847090Y-113378849D01*
X128836916Y-113379064D01*
X128791273Y-113379064D01*
X128809299Y-113335331D01*
X128824118Y-113300603D01*
X128843843Y-113255917D01*
X128846164Y-113250781D01*
X128942807Y-113250781D01*
X128994728Y-113250781D01*
X129025842Y-113249517D01*
X129044380Y-113246322D01*
X129046649Y-113244485D01*
X129041403Y-113228211D01*
X129028650Y-113202334D01*
X129012870Y-113174739D01*
X128998540Y-113153313D01*
X128990617Y-113145822D01*
X128981736Y-113155754D01*
X128969164Y-113181013D01*
X128962257Y-113198302D01*
X128942807Y-113250781D01*
X128846164Y-113250781D01*
X128859339Y-113221626D01*
X128882519Y-113170683D01*
X128908239Y-113113752D01*
X128923945Y-113078765D01*
X128942513Y-113039658D01*
X128957039Y-113017625D01*
X128971783Y-113007941D01*
X128989662Y-113005877D01*
X129007737Y-113007738D01*
G37*
G36*
X129703132Y-113016465D02*
G01*
X129707226Y-113028244D01*
X129709681Y-113051423D01*
X129710914Y-113089254D01*
X129711342Y-113144991D01*
X129711387Y-113193562D01*
X129711387Y-113379064D01*
X129673197Y-113379064D01*
X129635007Y-113379064D01*
X129638348Y-113291598D01*
X129638911Y-113249818D01*
X129637362Y-113218898D01*
X129634030Y-113204524D01*
X129633246Y-113204133D01*
X129621054Y-113211674D01*
X129597911Y-113231269D01*
X129574005Y-113253696D01*
X129523206Y-113303260D01*
X129487882Y-113259527D01*
X129465171Y-113233899D01*
X129447349Y-113218161D01*
X129442028Y-113215795D01*
X129436838Y-113226469D01*
X129433077Y-113254560D01*
X129431505Y-113294171D01*
X129431497Y-113297429D01*
X129431497Y-113379064D01*
X129390680Y-113379064D01*
X129349863Y-113379064D01*
X129349863Y-113198302D01*
X129350254Y-113122340D01*
X129352459Y-113068195D01*
X129358029Y-113034360D01*
X129368511Y-113019329D01*
X129385454Y-113021596D01*
X129410408Y-113039655D01*
X129444921Y-113071999D01*
X129462208Y-113089054D01*
X129534363Y-113160568D01*
X129599840Y-113090338D01*
X129633202Y-113056744D01*
X129663341Y-113030228D01*
X129684872Y-113015429D01*
X129688352Y-113014085D01*
X129696979Y-113012829D01*
X129703132Y-113016465D01*
G37*
G36*
X129930347Y-113195386D02*
G01*
X129933559Y-113379064D01*
X129894139Y-113379064D01*
X129854720Y-113379064D01*
X129848333Y-113201217D01*
X129846340Y-113139467D01*
X129845057Y-113086543D01*
X129844551Y-113046547D01*
X129844886Y-113023584D01*
X129845427Y-113019723D01*
X129858214Y-113016668D01*
X129884753Y-113014087D01*
X129888021Y-113013892D01*
X129927135Y-113011708D01*
X129930347Y-113195386D01*
G37*
G36*
X130334508Y-113014690D02*
G01*
X130386590Y-113038387D01*
X130416642Y-113063471D01*
X130431682Y-113082254D01*
X130430579Y-113094415D01*
X130412121Y-113110074D01*
X130410946Y-113110961D01*
X130390722Y-113124490D01*
X130374943Y-113125695D01*
X130352827Y-113114429D01*
X130345728Y-113110068D01*
X130316092Y-113094915D01*
X130291784Y-113087627D01*
X130289620Y-113087512D01*
X130251642Y-113097202D01*
X130215387Y-113121610D01*
X130191101Y-113153745D01*
X130190502Y-113155141D01*
X130181631Y-113200894D01*
X130192017Y-113240667D01*
X130217796Y-113271554D01*
X130255106Y-113290647D01*
X130300081Y-113295038D01*
X130348858Y-113281819D01*
X130354891Y-113278855D01*
X130380344Y-113267453D01*
X130396501Y-113268749D01*
X130414213Y-113283686D01*
X130414578Y-113284050D01*
X130430126Y-113303383D01*
X130428679Y-113318436D01*
X130422663Y-113326717D01*
X130382498Y-113358149D01*
X130329892Y-113375565D01*
X130271550Y-113378271D01*
X130214177Y-113365574D01*
X130184783Y-113351362D01*
X130138363Y-113311716D01*
X130109785Y-113262944D01*
X130097948Y-113209138D01*
X130101753Y-113154385D01*
X130120098Y-113102776D01*
X130151882Y-113058401D01*
X130196006Y-113025348D01*
X130251368Y-113007707D01*
X130277768Y-113005877D01*
X130334508Y-113014690D01*
G37*
G36*
X129175145Y-108602803D02*
G01*
X129380224Y-108623671D01*
X129577320Y-108664582D01*
X129769330Y-108726147D01*
X129959154Y-108808979D01*
X129971850Y-108815296D01*
X130168985Y-108926367D01*
X130349049Y-109053299D01*
X130511914Y-109195952D01*
X130657452Y-109354187D01*
X130785535Y-109527864D01*
X130896034Y-109716845D01*
X130987659Y-109918063D01*
X131056725Y-110122652D01*
X131103634Y-110331885D01*
X131128623Y-110543889D01*
X131131931Y-110756790D01*
X131113794Y-110968716D01*
X131074451Y-111177793D01*
X131014139Y-111382148D01*
X130933096Y-111579907D01*
X130831561Y-111769199D01*
X130734135Y-111915473D01*
X130686353Y-111975880D01*
X130625607Y-112045151D01*
X130557253Y-112117710D01*
X130486646Y-112187983D01*
X130419141Y-112250396D01*
X130381956Y-112282078D01*
X130204833Y-112411993D01*
X130016425Y-112521928D01*
X129818171Y-112611453D01*
X129611510Y-112680136D01*
X129397880Y-112727547D01*
X129178719Y-112753253D01*
X128955467Y-112756824D01*
X128825069Y-112748620D01*
X128705484Y-112732409D01*
X128573483Y-112705210D01*
X128436291Y-112668611D01*
X128376818Y-112650157D01*
X128177672Y-112573532D01*
X127988404Y-112476595D01*
X127810418Y-112360767D01*
X127645119Y-112227466D01*
X127493911Y-112078112D01*
X127358198Y-111914124D01*
X127239386Y-111736921D01*
X127138878Y-111547924D01*
X127058080Y-111348551D01*
X127042570Y-111301810D01*
X127030490Y-111262164D01*
X127250689Y-111262164D01*
X127255338Y-111276482D01*
X127267776Y-111306842D01*
X127285736Y-111348236D01*
X127306951Y-111395661D01*
X127329156Y-111444110D01*
X127350085Y-111488579D01*
X127367471Y-111524061D01*
X127378834Y-111545202D01*
X127401953Y-111572556D01*
X127425393Y-111583102D01*
X127425689Y-111583104D01*
X127448707Y-111593669D01*
X127477065Y-111623798D01*
X127487086Y-111637551D01*
X127521980Y-111684486D01*
X127566478Y-111739100D01*
X127617351Y-111797943D01*
X127671368Y-111857566D01*
X127725301Y-111914519D01*
X127775919Y-111965353D01*
X127819994Y-112006619D01*
X127854296Y-112034868D01*
X127866715Y-112043001D01*
X127892578Y-112061174D01*
X127902318Y-112069876D01*
X127925235Y-112088657D01*
X127963462Y-112115776D01*
X128012044Y-112148026D01*
X128066025Y-112182199D01*
X128120447Y-112215090D01*
X128170356Y-112243491D01*
X128172132Y-112244458D01*
X128331115Y-112321691D01*
X128491943Y-112380636D01*
X128662686Y-112424128D01*
X128709382Y-112433197D01*
X128814982Y-112450945D01*
X128905595Y-112462155D01*
X128988508Y-112467204D01*
X129071010Y-112466466D01*
X129160389Y-112460317D01*
X129186594Y-112457783D01*
X129323389Y-112438153D01*
X129468000Y-112407147D01*
X129612109Y-112367007D01*
X129747393Y-112319975D01*
X129834552Y-112283155D01*
X129882103Y-112259370D01*
X129940102Y-112227681D01*
X130001932Y-112191978D01*
X130060975Y-112156149D01*
X130110617Y-112124084D01*
X130137053Y-112105337D01*
X130184878Y-112067793D01*
X130240531Y-112022255D01*
X130298031Y-111973789D01*
X130351400Y-111927465D01*
X130394659Y-111888349D01*
X130407618Y-111876025D01*
X130427746Y-111865980D01*
X130450801Y-111872020D01*
X130475652Y-111878561D01*
X130489638Y-111876482D01*
X130504519Y-111861045D01*
X130528434Y-111829283D01*
X130558872Y-111785136D01*
X130593322Y-111732547D01*
X130629274Y-111675456D01*
X130664215Y-111617805D01*
X130695635Y-111563534D01*
X130721024Y-111516585D01*
X130728574Y-111501470D01*
X130755781Y-111440985D01*
X130784165Y-111370588D01*
X130811786Y-111295885D01*
X130836702Y-111222483D01*
X130856972Y-111155988D01*
X130870655Y-111102005D01*
X130874712Y-111079372D01*
X130880818Y-111033847D01*
X130801705Y-111037332D01*
X130765638Y-111039001D01*
X130740537Y-111042728D01*
X130722912Y-111052241D01*
X130709277Y-111071268D01*
X130696143Y-111103536D01*
X130680023Y-111152774D01*
X130672958Y-111174931D01*
X130649226Y-111240436D01*
X130617269Y-111316569D01*
X130580372Y-111396440D01*
X130541820Y-111473159D01*
X130504900Y-111539837D01*
X130480159Y-111579253D01*
X130420070Y-111661278D01*
X130350403Y-111746229D01*
X130278713Y-111825192D01*
X130233768Y-111869880D01*
X130158455Y-111940908D01*
X130112767Y-111908259D01*
X130069032Y-111882388D01*
X130037615Y-111876023D01*
X130019532Y-111887774D01*
X130002212Y-111904687D01*
X129968165Y-111929346D01*
X129921623Y-111959260D01*
X129866817Y-111991940D01*
X129807980Y-112024894D01*
X129749341Y-112055634D01*
X129695134Y-112081669D01*
X129675274Y-112090362D01*
X129586511Y-112124237D01*
X129486507Y-112156422D01*
X129382201Y-112185107D01*
X129280532Y-112208484D01*
X129188440Y-112224745D01*
X129137030Y-112230640D01*
X129034987Y-112238939D01*
X129034987Y-112290405D01*
X129031218Y-112329135D01*
X129019531Y-112347607D01*
X129017325Y-112348649D01*
X128995053Y-112351031D01*
X128954610Y-112349657D01*
X128900741Y-112345105D01*
X128838193Y-112337954D01*
X128771710Y-112328779D01*
X128706041Y-112318161D01*
X128645930Y-112306675D01*
X128614516Y-112299611D01*
X128424448Y-112241793D01*
X128243784Y-112163151D01*
X128073821Y-112064727D01*
X127915853Y-111947567D01*
X127771177Y-111812714D01*
X127641088Y-111661212D01*
X127610610Y-111616616D01*
X127882325Y-111616616D01*
X127892881Y-111629382D01*
X127915937Y-111651185D01*
X127936939Y-111669275D01*
X127987607Y-111711387D01*
X128296209Y-111711387D01*
X128604812Y-111711387D01*
X128575261Y-111661823D01*
X128545711Y-111612259D01*
X128212044Y-111609163D01*
X128119239Y-111608656D01*
X128038585Y-111608920D01*
X127972326Y-111609907D01*
X127922706Y-111611564D01*
X127891969Y-111613841D01*
X127882325Y-111616616D01*
X127610610Y-111616616D01*
X127526883Y-111494105D01*
X127455866Y-111365996D01*
X127436121Y-111325325D01*
X127421382Y-111291975D01*
X127414249Y-111271918D01*
X127413958Y-111269784D01*
X127402609Y-111261959D01*
X127369375Y-111257535D01*
X127332324Y-111256566D01*
X127292084Y-111257298D01*
X127262927Y-111259225D01*
X127250753Y-111261941D01*
X127250689Y-111262164D01*
X127030490Y-111262164D01*
X127027184Y-111251314D01*
X127635538Y-111251314D01*
X127641248Y-111267599D01*
X127656073Y-111297126D01*
X127676549Y-111333492D01*
X127699216Y-111370296D01*
X127703016Y-111376102D01*
X127731934Y-111419835D01*
X128081587Y-111419835D01*
X128431241Y-111419835D01*
X128410397Y-111387764D01*
X128391849Y-111359234D01*
X128367552Y-111321869D01*
X128353661Y-111300508D01*
X128317769Y-111245323D01*
X127976653Y-111245113D01*
X127890158Y-111245270D01*
X127811732Y-111245816D01*
X127744264Y-111246699D01*
X127690639Y-111247865D01*
X127653744Y-111249264D01*
X127636467Y-111250841D01*
X127635538Y-111251314D01*
X127027184Y-111251314D01*
X127013754Y-111207234D01*
X126991819Y-111123914D01*
X126975894Y-111045855D01*
X126965112Y-110967066D01*
X126958604Y-110881554D01*
X126955502Y-110783326D01*
X126954887Y-110696786D01*
X127154916Y-110696786D01*
X127163042Y-110798830D01*
X127168675Y-110857650D01*
X127176064Y-110918963D01*
X127183739Y-110970742D01*
X127184776Y-110976676D01*
X127198386Y-111052480D01*
X127821197Y-111058311D01*
X128444008Y-111064142D01*
X128573313Y-111279980D01*
X128617158Y-111353063D01*
X128662221Y-111427989D01*
X128705254Y-111499375D01*
X128743013Y-111561837D01*
X128772251Y-111609990D01*
X128773689Y-111612349D01*
X128809411Y-111671251D01*
X128851255Y-111740758D01*
X128893518Y-111811369D01*
X128924223Y-111862994D01*
X128964480Y-111931174D01*
X128994962Y-111981998D01*
X129018275Y-112017873D01*
X129037027Y-112041210D01*
X129053824Y-112054416D01*
X129071275Y-112059901D01*
X129091986Y-112060073D01*
X129118564Y-112057341D01*
X129132943Y-112055825D01*
X129189458Y-112048909D01*
X129253485Y-112039028D01*
X129303214Y-112029876D01*
X129345189Y-112021047D01*
X129377054Y-112013854D01*
X129393005Y-112009619D01*
X129393776Y-112009243D01*
X129388954Y-111998907D01*
X129373730Y-111971505D01*
X129349778Y-111929928D01*
X129318770Y-111877066D01*
X129282380Y-111815808D01*
X129264553Y-111786038D01*
X129210881Y-111696309D01*
X129156253Y-111604395D01*
X129101972Y-111512544D01*
X129049343Y-111422999D01*
X128999672Y-111338007D01*
X128954262Y-111259814D01*
X128914418Y-111190666D01*
X128881446Y-111132807D01*
X128856649Y-111088485D01*
X128841332Y-111059944D01*
X128836731Y-111049629D01*
X128846390Y-111040040D01*
X128871305Y-111024893D01*
X128895489Y-111012597D01*
X128968292Y-110966194D01*
X129034603Y-110901098D01*
X129091147Y-110821716D01*
X129134649Y-110732458D01*
X129156974Y-110660715D01*
X129173834Y-110540233D01*
X129168007Y-110421407D01*
X129140120Y-110306557D01*
X129090801Y-110198003D01*
X129020677Y-110098064D01*
X128997836Y-110072408D01*
X128915151Y-109997818D01*
X128820026Y-109938784D01*
X128708329Y-109892764D01*
X128702617Y-109890884D01*
X128679578Y-109883721D01*
X128657116Y-109877924D01*
X128632438Y-109873316D01*
X128602749Y-109869716D01*
X128565254Y-109866947D01*
X128517160Y-109864828D01*
X128490488Y-109864114D01*
X129034987Y-109864114D01*
X129042547Y-109875678D01*
X129061865Y-109897528D01*
X129076740Y-109912865D01*
X129123784Y-109964638D01*
X129175237Y-110029026D01*
X129224844Y-110097900D01*
X129256053Y-110145940D01*
X129279638Y-110180655D01*
X129302044Y-110207606D01*
X129315225Y-110218828D01*
X129335649Y-110223722D01*
X129373201Y-110227576D01*
X129421689Y-110229879D01*
X129454055Y-110230303D01*
X129571442Y-110230303D01*
X129571442Y-111087466D01*
X129571558Y-111264522D01*
X129571915Y-111419078D01*
X129572524Y-111551957D01*
X129573398Y-111663979D01*
X129574549Y-111755970D01*
X129575990Y-111828750D01*
X129577732Y-111883142D01*
X129579789Y-111919969D01*
X129582171Y-111940054D01*
X129584231Y-111944628D01*
X129598840Y-111938591D01*
X129628098Y-111922302D01*
X129667279Y-111898492D01*
X129697937Y-111878905D01*
X129750162Y-111843944D01*
X129803886Y-111806417D01*
X129850362Y-111772488D01*
X129865909Y-111760564D01*
X129932966Y-111707946D01*
X129932965Y-111498321D01*
X130144035Y-111498321D01*
X130145068Y-111550756D01*
X130148438Y-111584411D01*
X130154991Y-111600802D01*
X130165573Y-111601442D01*
X130181033Y-111587846D01*
X130202214Y-111561528D01*
X130229966Y-111524004D01*
X130243319Y-111505894D01*
X130324481Y-111383381D01*
X130390437Y-111253789D01*
X130429004Y-111157149D01*
X130446981Y-111105411D01*
X130456598Y-111071569D01*
X130458583Y-111052034D01*
X130453660Y-111043221D01*
X130452223Y-111042544D01*
X130434852Y-111040343D01*
X130399295Y-111038864D01*
X130350683Y-111038233D01*
X130294146Y-111038578D01*
X130292450Y-111038604D01*
X130148715Y-111040818D01*
X130145592Y-111331054D01*
X130144492Y-111425592D01*
X130144035Y-111498321D01*
X129932965Y-111498321D01*
X129932962Y-110966209D01*
X129932961Y-110715386D01*
X130139617Y-110715386D01*
X130139958Y-110743998D01*
X130140993Y-110760105D01*
X130145232Y-110813407D01*
X130528906Y-110813407D01*
X130912581Y-110813407D01*
X130912581Y-110755097D01*
X130912581Y-110696786D01*
X130529676Y-110696786D01*
X130437550Y-110696933D01*
X130353088Y-110697351D01*
X130279064Y-110698002D01*
X130218249Y-110698852D01*
X130173417Y-110699865D01*
X130147340Y-110701005D01*
X130141762Y-110701795D01*
X130139617Y-110715386D01*
X129932961Y-110715386D01*
X129932959Y-110455770D01*
X129932959Y-110405234D01*
X130131222Y-110405234D01*
X130131222Y-110455770D01*
X130132910Y-110488539D01*
X130137149Y-110510588D01*
X130139153Y-110514237D01*
X130152324Y-110516060D01*
X130186004Y-110517550D01*
X130237383Y-110518671D01*
X130303647Y-110519388D01*
X130381985Y-110519666D01*
X130469585Y-110519469D01*
X130526917Y-110519096D01*
X130906750Y-110516024D01*
X130908071Y-110460629D01*
X130909393Y-110405234D01*
X130520307Y-110405234D01*
X130131222Y-110405234D01*
X129932959Y-110405234D01*
X129932958Y-110224472D01*
X130399445Y-110227648D01*
X130518173Y-110228351D01*
X130615558Y-110228651D01*
X130693581Y-110228494D01*
X130754219Y-110227823D01*
X130799452Y-110226584D01*
X130831260Y-110224720D01*
X130851622Y-110222176D01*
X130862516Y-110218896D01*
X130865923Y-110214826D01*
X130865932Y-110214559D01*
X130861818Y-110191397D01*
X130850743Y-110152212D01*
X130834614Y-110102555D01*
X130815336Y-110047977D01*
X130794814Y-109994028D01*
X130774952Y-109946260D01*
X130770269Y-109935836D01*
X130734197Y-109857117D01*
X129884592Y-109857117D01*
X129746132Y-109857210D01*
X129614686Y-109857481D01*
X129492080Y-109857914D01*
X129380146Y-109858493D01*
X129280712Y-109859204D01*
X129195607Y-109860032D01*
X129126661Y-109860962D01*
X129075703Y-109861978D01*
X129044562Y-109863066D01*
X129034987Y-109864114D01*
X128490488Y-109864114D01*
X128455672Y-109863182D01*
X128377996Y-109861829D01*
X128281337Y-109860590D01*
X128218641Y-109859888D01*
X127816300Y-109855497D01*
X127749831Y-109975843D01*
X127712756Y-110044790D01*
X127681213Y-110107017D01*
X127656780Y-110159164D01*
X127641030Y-110197872D01*
X127635538Y-110219608D01*
X127646895Y-110222137D01*
X127679751Y-110224412D01*
X127732280Y-110226392D01*
X127802657Y-110228036D01*
X127889058Y-110229303D01*
X127989658Y-110230152D01*
X128102632Y-110230542D01*
X128122429Y-110230559D01*
X128242752Y-110230687D01*
X128342040Y-110230994D01*
X128422585Y-110231573D01*
X128486676Y-110232518D01*
X128536604Y-110233922D01*
X128574659Y-110235880D01*
X128603130Y-110238484D01*
X128624308Y-110241828D01*
X128640483Y-110246005D01*
X128653945Y-110251110D01*
X128656794Y-110252377D01*
X128713244Y-110289229D01*
X128756802Y-110339933D01*
X128786144Y-110399809D01*
X128799945Y-110464180D01*
X128796877Y-110528365D01*
X128775618Y-110587685D01*
X128758851Y-110612695D01*
X128745988Y-110629143D01*
X128734430Y-110643297D01*
X128722421Y-110655329D01*
X128708205Y-110665412D01*
X128690026Y-110673716D01*
X128666128Y-110680414D01*
X128634755Y-110685678D01*
X128594152Y-110689680D01*
X128542562Y-110692590D01*
X128478230Y-110694582D01*
X128399399Y-110695826D01*
X128304315Y-110696495D01*
X128191220Y-110696761D01*
X128058359Y-110696794D01*
X127903977Y-110696768D01*
X127899612Y-110696768D01*
X127154916Y-110696786D01*
X126954887Y-110696786D01*
X126955114Y-110610270D01*
X126956088Y-110542004D01*
X126957326Y-110509852D01*
X127562718Y-110509852D01*
X127922750Y-110513276D01*
X128020791Y-110514150D01*
X128118966Y-110514918D01*
X128212729Y-110515551D01*
X128297532Y-110516024D01*
X128368828Y-110516307D01*
X128422070Y-110516374D01*
X128428559Y-110516362D01*
X128574335Y-110516024D01*
X128576888Y-110460629D01*
X128579440Y-110405234D01*
X128078334Y-110405234D01*
X127954530Y-110405338D01*
X127852165Y-110405689D01*
X127769350Y-110406348D01*
X127704202Y-110407376D01*
X127654833Y-110408832D01*
X127619358Y-110410777D01*
X127595892Y-110413271D01*
X127582547Y-110416375D01*
X127577439Y-110420148D01*
X127577227Y-110421270D01*
X127575034Y-110443693D01*
X127569972Y-110473579D01*
X127562718Y-110509852D01*
X126957326Y-110509852D01*
X126957665Y-110501060D01*
X127172155Y-110501060D01*
X127180022Y-110506959D01*
X127201190Y-110509019D01*
X127240158Y-110508246D01*
X127251284Y-110507808D01*
X127335422Y-110504362D01*
X127362064Y-110376079D01*
X127413731Y-110180592D01*
X127485449Y-109996077D01*
X127577679Y-109821728D01*
X127690883Y-109656737D01*
X127691782Y-109655692D01*
X128026810Y-109655692D01*
X128029736Y-109658348D01*
X128041507Y-109660685D01*
X128063360Y-109662722D01*
X128096535Y-109664476D01*
X128142271Y-109665965D01*
X128201806Y-109667208D01*
X128276380Y-109668223D01*
X128367230Y-109669027D01*
X128475597Y-109669638D01*
X128602718Y-109670075D01*
X128749833Y-109670355D01*
X128918181Y-109670497D01*
X129047015Y-109670524D01*
X129199476Y-109670419D01*
X129345090Y-109670115D01*
X129482191Y-109669627D01*
X129609114Y-109668971D01*
X129724197Y-109668161D01*
X129825772Y-109667213D01*
X129912176Y-109666142D01*
X129981745Y-109664964D01*
X130032813Y-109663694D01*
X130063716Y-109662348D01*
X130072911Y-109661086D01*
X130064119Y-109647963D01*
X130040401Y-109624562D01*
X130005750Y-109594252D01*
X129964155Y-109560401D01*
X129919608Y-109526378D01*
X129879723Y-109498010D01*
X129724941Y-109405591D01*
X129559429Y-109330950D01*
X129388390Y-109276254D01*
X129301500Y-109256889D01*
X129231065Y-109247245D01*
X129146023Y-109241346D01*
X129053609Y-109239186D01*
X128961058Y-109240758D01*
X128875604Y-109246056D01*
X128804481Y-109255073D01*
X128792507Y-109257344D01*
X128662166Y-109288869D01*
X128536129Y-109328846D01*
X128418525Y-109375525D01*
X128313483Y-109427159D01*
X128225132Y-109482000D01*
X128181490Y-109516027D01*
X128141996Y-109549880D01*
X128102619Y-109583164D01*
X128074973Y-109606128D01*
X128048353Y-109629945D01*
X128030301Y-109649880D01*
X128026810Y-109655692D01*
X127691782Y-109655692D01*
X127825522Y-109500298D01*
X127910900Y-109415709D01*
X128060466Y-109289759D01*
X128220355Y-109183454D01*
X128392416Y-109095793D01*
X128578494Y-109025774D01*
X128688461Y-108994166D01*
X128750977Y-108979117D01*
X128815680Y-108965460D01*
X128878264Y-108953887D01*
X128934420Y-108945087D01*
X128979842Y-108939750D01*
X129010222Y-108938565D01*
X129020689Y-108940952D01*
X129024493Y-108955383D01*
X129027292Y-108985530D01*
X129028215Y-109011577D01*
X129029156Y-109075617D01*
X129099128Y-109075756D01*
X129211929Y-109082921D01*
X129336055Y-109102767D01*
X129464587Y-109133443D01*
X129590606Y-109173101D01*
X129707191Y-109219892D01*
X129785395Y-109259177D01*
X129820511Y-109278459D01*
X129846769Y-109292179D01*
X129858403Y-109297337D01*
X129871618Y-109304033D01*
X129898956Y-109322086D01*
X129936199Y-109348448D01*
X129979128Y-109380067D01*
X130023524Y-109413895D01*
X130064475Y-109446318D01*
X130113019Y-109488354D01*
X130165421Y-109537861D01*
X130210627Y-109584378D01*
X130212038Y-109585928D01*
X130280572Y-109661447D01*
X130443369Y-109667462D01*
X130508887Y-109669095D01*
X130561091Y-109668806D01*
X130596755Y-109666689D01*
X130612652Y-109662840D01*
X130612988Y-109662438D01*
X130609374Y-109648355D01*
X130592982Y-109620280D01*
X130566457Y-109581715D01*
X130532446Y-109536163D01*
X130493595Y-109487127D01*
X130452550Y-109438110D01*
X130411958Y-109392614D01*
X130397764Y-109377563D01*
X130251093Y-109241129D01*
X130088306Y-109119723D01*
X129912658Y-109015376D01*
X129727401Y-108930119D01*
X129618090Y-108890628D01*
X129420955Y-108838371D01*
X129221524Y-108808644D01*
X129021532Y-108801001D01*
X128822713Y-108814999D01*
X128626800Y-108850194D01*
X128435528Y-108906142D01*
X128250630Y-108982397D01*
X128073840Y-109078517D01*
X127906892Y-109194056D01*
X127751520Y-109328571D01*
X127697720Y-109382636D01*
X127623938Y-109462114D01*
X127563722Y-109532789D01*
X127512549Y-109600579D01*
X127465892Y-109671403D01*
X127428525Y-109734665D01*
X127350234Y-109884991D01*
X127284927Y-110036332D01*
X127234128Y-110184463D01*
X127199361Y-110325158D01*
X127186711Y-110405234D01*
X127181331Y-110445119D01*
X127175870Y-110477807D01*
X127173088Y-110490315D01*
X127172155Y-110501060D01*
X126957665Y-110501060D01*
X126958210Y-110486916D01*
X126961882Y-110439935D01*
X126967505Y-110395990D01*
X126975480Y-110350009D01*
X126986209Y-110296921D01*
X126986729Y-110294445D01*
X127043047Y-110074728D01*
X127116675Y-109870161D01*
X127208233Y-109679604D01*
X127318338Y-109501917D01*
X127447609Y-109335959D01*
X127584489Y-109192185D01*
X127753502Y-109045510D01*
X127933582Y-108918731D01*
X128123525Y-108812367D01*
X128322125Y-108726935D01*
X128528177Y-108662953D01*
X128740475Y-108620940D01*
X128957814Y-108601414D01*
X128959183Y-108601364D01*
X129175145Y-108602803D01*
G37*
D12*
%TO.C,C11*%
X137640000Y-105607836D02*
X137640000Y-105392164D01*
X138360000Y-105607836D02*
X138360000Y-105392164D01*
%TO.C,R1*%
X135846359Y-98020000D02*
X136153641Y-98020000D01*
X135846359Y-98780000D02*
X136153641Y-98780000D01*
%TO.C,Y1*%
X133850000Y-102324104D02*
X133850000Y-106324104D01*
X137150000Y-102324104D02*
X133850000Y-102324104D01*
%TO.C,J3*%
X140550000Y-92570000D02*
X140550000Y-95230000D01*
X148230000Y-92570000D02*
X140550000Y-92570000D01*
X148230000Y-92570000D02*
X148230000Y-95230000D01*
X148230000Y-95230000D02*
X140550000Y-95230000D01*
X149500000Y-92570000D02*
X150830000Y-92570000D01*
X150830000Y-92570000D02*
X150830000Y-93900000D01*
%TO.C,SW1*%
X131079126Y-93356375D02*
X131079126Y-94146375D01*
X133129126Y-95196375D02*
X132929126Y-95196375D01*
X136129126Y-95196375D02*
X134429126Y-95196375D01*
X137379126Y-92346375D02*
X131679126Y-92346375D01*
X137979126Y-94146375D02*
X137979126Y-93356375D01*
%TO.C,U1*%
X142890000Y-101890000D02*
X142890000Y-102340000D01*
X142890000Y-109110000D02*
X142890000Y-108660000D01*
X143340000Y-101890000D02*
X142890000Y-101890000D01*
X143340000Y-109110000D02*
X142890000Y-109110000D01*
X149660000Y-101890000D02*
X150110000Y-101890000D01*
X149660000Y-109110000D02*
X150110000Y-109110000D01*
X150110000Y-101890000D02*
X150110000Y-102340000D01*
X150110000Y-109110000D02*
X150110000Y-108660000D01*
X142300000Y-102340000D02*
X141960000Y-101870000D01*
X142640000Y-101870000D01*
X142300000Y-102340000D01*
G36*
X142300000Y-102340000D02*
G01*
X141960000Y-101870000D01*
X142640000Y-101870000D01*
X142300000Y-102340000D01*
G37*
%TO.C,C4*%
X140097034Y-102366398D02*
X140097034Y-102150726D01*
X140817034Y-102366398D02*
X140817034Y-102150726D01*
%TO.C,C6*%
X140140000Y-106607836D02*
X140140000Y-106392164D01*
X140860000Y-106607836D02*
X140860000Y-106392164D01*
D10*
%TO.C,J1*%
X163175000Y-105233629D02*
X163175000Y-105958629D01*
X163175000Y-105958629D02*
X163600000Y-105958629D01*
X163600000Y-102358629D02*
X163600000Y-101358629D01*
X163600000Y-105958629D02*
X163600000Y-106958629D01*
X165350000Y-108308629D02*
X166750000Y-108308629D01*
X166750000Y-100008629D02*
X165350000Y-100008629D01*
X169150000Y-108308629D02*
X169300000Y-108308629D01*
X169300000Y-100008629D02*
X169150000Y-100008629D01*
X169300000Y-100308629D02*
X169300000Y-100008629D01*
X169300000Y-108008629D02*
X169750000Y-108008629D01*
X169300000Y-108308629D02*
X169300000Y-108008629D01*
X169750000Y-100308629D02*
X169300000Y-100308629D01*
D12*
%TO.C,C13*%
X159524658Y-108014348D02*
X160047162Y-108014348D01*
X159524658Y-109484348D02*
X160047162Y-109484348D01*
%TO.C,C1*%
X149465570Y-111145022D02*
X149249898Y-111145022D01*
X149465570Y-111865022D02*
X149249898Y-111865022D01*
%TO.C,C3*%
X152162960Y-102892164D02*
X152162960Y-103107836D01*
X152882960Y-102892164D02*
X152882960Y-103107836D01*
%TO.C,R4*%
X146260685Y-114120000D02*
X145953403Y-114120000D01*
X146260685Y-114880000D02*
X145953403Y-114880000D01*
%TO.C,C9*%
X140860000Y-108392164D02*
X140860000Y-108607836D01*
X140140000Y-108392164D02*
X140140000Y-108607836D01*
%TO.C,C12*%
X163765000Y-114161252D02*
X163765000Y-113638748D01*
X165235000Y-114161252D02*
X165235000Y-113638748D01*
%TO.C,R3*%
X167742997Y-109827051D02*
X167435715Y-109827051D01*
X167742997Y-110587051D02*
X167435715Y-110587051D01*
%TO.C,FB1*%
X141490000Y-112162779D02*
X141490000Y-111837221D01*
X142510000Y-112162779D02*
X142510000Y-111837221D01*
%TO.C,U2*%
X156375910Y-112399348D02*
X156375910Y-116159348D01*
X156375910Y-116159348D02*
X157635910Y-116159348D01*
X163195910Y-112399348D02*
X163195910Y-116159348D01*
X163195910Y-116159348D02*
X161935910Y-116159348D01*
X163425910Y-111359348D02*
X163095910Y-111119348D01*
X163425910Y-110879348D01*
X163425910Y-111359348D01*
G36*
X163425910Y-111359348D02*
G01*
X163095910Y-111119348D01*
X163425910Y-110879348D01*
X163425910Y-111359348D01*
G37*
%TO.C,R2*%
X158887519Y-103455476D02*
X158887519Y-103762758D01*
X158127519Y-103455476D02*
X158127519Y-103762758D01*
%TO.C,R5*%
X148166359Y-114120000D02*
X148473641Y-114120000D01*
X148166359Y-114880000D02*
X148473641Y-114880000D01*
%TO.C,D1*%
X166575923Y-111015000D02*
X166575923Y-113300000D01*
X168045923Y-111015000D02*
X166575923Y-111015000D01*
X168045923Y-113300000D02*
X168045923Y-111015000D01*
%TO.C,C8*%
X140312180Y-113140833D02*
X140096508Y-113140833D01*
X140312180Y-112420833D02*
X140096508Y-112420833D01*
%TO.C,J4*%
X142370000Y-120330000D02*
X142370000Y-119000000D01*
X143700000Y-120330000D02*
X142370000Y-120330000D01*
X144970000Y-117670000D02*
X152650000Y-117670000D01*
X144970000Y-120330000D02*
X144970000Y-117670000D01*
X144970000Y-120330000D02*
X152650000Y-120330000D01*
X152650000Y-120330000D02*
X152650000Y-117670000D01*
%TO.C,C10*%
X137640000Y-103431940D02*
X137640000Y-103216268D01*
X138360000Y-103431940D02*
X138360000Y-103216268D01*
%TO.C,C7*%
X140303875Y-110851575D02*
X140088203Y-110851575D01*
X140303875Y-111571575D02*
X140088203Y-111571575D01*
%TO.C,J2*%
X153050000Y-92570000D02*
X153050000Y-95230000D01*
X160730000Y-92570000D02*
X153050000Y-92570000D01*
X160730000Y-92570000D02*
X160730000Y-95230000D01*
X160730000Y-95230000D02*
X153050000Y-95230000D01*
X162000000Y-92570000D02*
X163330000Y-92570000D01*
X163330000Y-92570000D02*
X163330000Y-93900000D01*
%TO.C,C2*%
X143892164Y-98860000D02*
X144107836Y-98860000D01*
X143892164Y-98140000D02*
X144107836Y-98140000D01*
%TD*%
M02*
