G04 EAGLE Gerber RS-274X export*
G75*
%MOMM*%
%FSLAX34Y34*%
%LPD*%
%INTop Copper*%
%IPPOS*%
%AMOC8*
5,1,8,0,0,1.08239X$1,22.5*%
G01*
%ADD10P,1.429621X8X22.500000*%
%ADD11C,1.320800*%
%ADD12P,1.429621X8X112.500000*%
%ADD13P,1.429621X8X292.500000*%
%ADD14P,1.429621X8X202.500000*%
%ADD15C,1.790700*%
%ADD16C,0.152400*%
%ADD17C,0.756400*%


D10*
X99060Y203200D03*
D11*
X78740Y203200D03*
D10*
X209550Y285750D03*
X260350Y285750D03*
D11*
X152400Y247650D03*
X152400Y222250D03*
X228600Y222250D03*
X228600Y247650D03*
X152400Y196850D03*
X152400Y171450D03*
X228600Y196850D03*
X228600Y171450D03*
D10*
X31750Y260350D03*
X57150Y260350D03*
D12*
X323850Y120650D03*
X323850Y222250D03*
D13*
X285750Y222250D03*
X285750Y120650D03*
D14*
X133350Y146050D03*
X31750Y146050D03*
D15*
X171850Y59754D02*
X171850Y41847D01*
X221850Y41847D02*
X221850Y59754D01*
D16*
X228600Y222250D02*
X285750Y222250D01*
X323850Y222250D01*
X288528Y124222D02*
X285750Y120650D01*
X266700Y120650D01*
X266700Y196850D01*
X228600Y196850D01*
X152400Y222250D02*
X99060Y203200D01*
X152400Y222250D02*
X228600Y196850D01*
X323850Y120650D02*
X275828Y50800D01*
X221850Y50800D01*
X222250Y133350D01*
X152400Y133350D01*
X152400Y171450D01*
X57150Y203200D02*
X57150Y260350D01*
X57150Y203200D02*
X78740Y203200D01*
X163732Y50800D02*
X171850Y50800D01*
X152400Y285750D02*
X209550Y285750D01*
X152400Y285750D02*
X95250Y285750D01*
X95250Y260350D01*
X57150Y260350D01*
X152400Y247650D02*
X152400Y285750D01*
X171450Y114300D02*
X171850Y50800D01*
X171450Y114300D02*
X76200Y114300D01*
X78740Y203200D01*
D17*
X260350Y171450D03*
D16*
X228600Y171450D01*
X31750Y146050D02*
X31750Y260350D01*
X133350Y196850D02*
X152400Y196850D01*
X133350Y196850D02*
X133350Y146050D01*
M02*
