M48
;GenerationSoftware,Autodesk,EAGLE,9.6.2*%
;CreationDate,2023-02-23T21:46:17Z*%
FMAT,2
ICI,OFF
METRIC,TZ,000.000
T4C0.350
T3C0.813
T2C1.194
T1C2.800
%
G90
M71
T1
X3810Y3810
X3810Y34290
X34290Y34290
X34290Y3810
T2
X17185Y5080
X22185Y5080
T3
X9906Y20320
X7874Y20320
X20955Y28575
X26035Y28575
X15240Y24765
X15240Y22225
X22860Y22225
X22860Y24765
X15240Y19685
X15240Y17145
X22860Y19685
X22860Y17145
X3175Y26035
X5715Y26035
X32385Y12065
X32385Y22225
X28575Y22225
X28575Y12065
X13335Y14605
X3175Y14605
T4
X26035Y17145
M30